<svg width="205" height="205" viewBox="0 0 205 205" fill="none" xmlns="http://www.w3.org/2000/svg">
<path d="M194.049 112.224C194.834 112.278 195.434 112.2 195.85 111.988C196.279 111.778 196.574 111.477 196.735 111.087C196.909 110.699 197.007 110.251 197.029 109.745L197.09 108.285C197.111 107.792 197.015 107.445 196.802 107.243C196.602 107.042 196.323 106.916 195.966 106.864C195.609 106.812 195.197 106.77 194.732 106.738L191.879 106.54L191.806 108.158C191.769 109.265 191.632 110.178 191.395 110.897C191.17 111.629 190.869 112.21 190.492 112.638C190.115 113.066 189.667 113.356 189.149 113.507C188.643 113.672 188.09 113.734 187.492 113.692C186.641 113.633 185.923 113.376 185.34 112.921C184.77 112.467 184.35 111.877 184.08 111.15C183.81 110.422 183.706 109.607 183.769 108.702L184.174 102.876L184.833 102.922C184.811 103.428 184.9 103.782 185.1 103.983C185.313 104.185 185.605 104.306 185.977 104.345C186.361 104.398 186.799 104.442 187.291 104.476L195.81 105.069C196.076 105.087 196.328 105.112 196.567 105.141C196.819 105.172 197.044 105.201 197.243 105.229C197.246 104.988 197.249 104.748 197.253 104.508C197.256 104.267 197.259 104.027 197.263 103.786L198.141 103.848L197.497 113.105L193.998 112.962L194.049 112.224ZM186.312 106.152C185.953 106.127 185.648 106.099 185.396 106.069C185.143 106.051 184.931 106.023 184.76 105.984C184.732 106.196 184.701 106.448 184.667 106.74C184.646 107.046 184.627 107.325 184.609 107.578C184.591 107.844 184.579 108.017 184.573 108.096C184.502 109.121 184.711 109.957 185.2 110.606C185.689 111.268 186.459 111.636 187.509 111.709C188.387 111.77 189.07 111.657 189.558 111.37C190.058 111.098 190.419 110.708 190.642 110.203C190.863 109.71 190.995 109.158 191.037 108.546C191.065 108.147 191.084 107.781 191.094 107.447C191.116 107.128 191.125 106.808 191.12 106.487L186.312 106.152Z" fill="black"/>
<path d="M177.579 115.264C177.664 114.859 177.835 114.534 178.091 114.288C178.347 114.042 178.678 113.962 179.082 114.047C179.317 114.097 179.516 114.22 179.678 114.418C179.841 114.616 179.896 114.839 179.844 115.087C179.791 115.402 179.649 115.591 179.419 115.651C179.185 115.724 178.99 115.745 178.834 115.712C178.795 115.703 178.755 115.695 178.716 115.687C178.664 115.676 178.613 115.658 178.564 115.634C178.529 115.668 178.501 115.737 178.479 115.841C178.446 115.998 178.476 116.181 178.568 116.391C178.66 116.602 178.815 116.805 179.032 117C179.284 117.23 179.673 117.517 180.2 117.859C180.725 118.215 181.355 118.62 182.09 119.075L189.27 117.399C190.072 117.213 190.705 117.088 191.168 117.022C191.629 116.969 191.969 116.938 192.189 116.93L192.348 115.983L193.15 116.152L192.297 120.203L191.71 120.079L191.727 120.001C191.803 119.444 191.657 119.1 191.29 118.969C190.936 118.839 190.343 118.871 189.512 119.064L184.117 120.319C184.889 120.795 185.651 121.256 186.402 121.7C187.166 122.147 187.924 122.593 188.675 123.037C188.94 123.202 189.212 123.368 189.49 123.536C189.778 123.719 190.029 123.888 190.242 124.042C190.465 124.211 190.6 124.348 190.646 124.454L190.852 123.087L191.654 123.256L191.007 126.328L190.42 126.205C190.339 125.683 190.109 125.254 189.731 124.915C189.363 124.592 188.872 124.237 188.259 123.849L181.944 119.964C180.931 119.342 180.08 118.788 179.392 118.302C178.691 117.814 178.186 117.333 177.877 116.859C177.555 116.382 177.455 115.851 177.579 115.264Z" fill="black"/>
<path d="M177.904 123.059L181.982 124.485L181.711 125.259C181.606 125.561 181.587 125.837 181.655 126.087C181.736 126.341 181.995 126.65 182.432 127.015C182.761 127.286 183.135 127.551 183.553 127.81C183.966 128.081 184.437 128.352 184.964 128.621C185.504 128.895 186.099 129.173 186.748 129.457C187.397 129.741 188.114 130.034 188.898 130.336L189.404 128.648L190.216 128.932L187.297 137.277L186.731 137.079C186.867 136.688 186.861 136.383 186.713 136.161C186.577 135.944 186.337 135.761 185.994 135.613C185.662 135.469 185.27 135.318 184.817 135.159L180.249 133.561C180.001 133.461 179.779 133.369 179.582 133.286C179.398 133.207 179.205 133.112 179.005 132.999L178.479 134.744L174.326 133.291L174.577 132.574C175.609 132.935 176.464 133.114 177.143 133.111C177.818 133.121 178.265 132.811 178.485 132.182L180.459 126.537C180.675 125.921 180.527 125.395 180.014 124.962C179.485 124.537 178.698 124.142 177.653 123.776L177.904 123.059ZM181.117 126.958L179.935 130.337C179.799 130.728 179.799 131.031 179.935 131.248C180.079 131.482 180.316 131.671 180.647 131.815C180.987 131.976 181.383 132.136 181.836 132.294L186.254 133.839C186.505 133.927 186.726 134.004 186.914 134.07C187.111 134.153 187.312 134.245 187.518 134.345L188.204 132.382C188.341 131.991 188.322 131.681 188.148 131.451C187.97 131.233 187.695 131.031 187.322 130.844C186.501 130.486 185.739 130.121 185.036 129.748C184.341 129.392 183.73 129.058 183.204 128.747C182.685 128.453 182.288 128.194 182.013 127.971C181.805 127.799 181.624 127.63 181.47 127.463C181.329 127.301 181.212 127.132 181.117 126.958Z" fill="black"/>
<path d="M177.353 135.111L177.888 135.381C177.678 135.827 177.671 136.182 177.867 136.445C178.069 136.726 178.402 136.984 178.866 137.218L183.848 139.731C184.086 139.851 184.295 139.956 184.473 140.046C184.658 140.154 184.842 140.277 185.026 140.414C185.111 140.218 185.195 140.021 185.279 139.825C185.369 139.646 185.456 139.459 185.54 139.262L186.272 139.632L184.435 143.275L183.899 143.004C184.08 142.647 184.125 142.349 184.037 142.11C183.942 141.883 183.776 141.695 183.538 141.545C183.312 141.401 183.086 141.272 182.859 141.158L181.216 140.33L180.694 141.455C180.231 142.431 179.743 143.133 179.229 143.561C178.72 144.006 178.207 144.24 177.688 144.262C177.175 144.302 176.68 144.202 176.204 143.962C175.633 143.673 175.219 143.293 174.965 142.821C174.704 142.361 174.583 141.86 174.603 141.317C174.623 140.775 174.765 140.242 175.029 139.718L177.353 135.111ZM176.788 138.051C176.71 138.176 176.623 138.334 176.527 138.525C176.425 138.727 176.332 138.911 176.248 139.078C176.158 139.257 176.098 139.376 176.068 139.435C175.791 139.983 175.7 140.519 175.794 141.044C175.881 141.581 176.27 142.024 176.961 142.372C177.568 142.678 178.128 142.737 178.642 142.548C179.161 142.377 179.577 141.982 179.889 141.363C180.021 141.101 180.138 140.854 180.241 140.621C180.349 140.407 180.448 140.196 180.538 139.987L177.77 138.591C177.544 138.477 177.35 138.372 177.19 138.276C177.023 138.192 176.889 138.117 176.788 138.051Z" fill="black"/>
<path d="M167.05 151.738C167.588 151.025 168.246 150.486 169.024 150.121C169.803 149.775 170.633 149.65 171.513 149.746C172.395 149.862 173.267 150.245 174.129 150.896C174.682 151.314 175.143 151.821 175.511 152.417C175.88 153.013 176.135 153.648 176.276 154.324C176.42 155.018 176.422 155.712 176.281 156.408C176.139 157.103 175.836 157.759 175.37 158.376C174.919 158.972 174.439 159.42 173.929 159.719C173.41 160.029 172.91 160.194 172.427 160.214C171.944 160.233 171.527 160.11 171.176 159.845C170.942 159.668 170.788 159.452 170.715 159.195C170.651 158.947 170.712 158.701 170.897 158.456C171.088 158.182 171.312 158.051 171.571 158.063C171.832 158.093 172.032 158.16 172.17 158.265C172.276 158.345 172.371 158.441 172.453 158.554C172.546 158.674 172.604 158.818 172.627 158.986C172.947 159.094 173.246 159.086 173.523 158.962C173.812 158.845 174.06 158.682 174.269 158.472C174.481 158.281 174.642 158.111 174.755 157.962C175.302 157.239 175.471 156.406 175.264 155.464C175.059 154.541 174.404 153.661 173.298 152.825C172.585 152.286 171.868 151.92 171.146 151.725C170.416 151.541 169.734 151.536 169.102 151.71C168.48 151.891 167.964 152.253 167.554 152.796C167.176 153.296 166.947 153.875 166.867 154.533C166.788 155.192 166.843 155.793 167.033 156.338L166.4 156.512C166.162 155.898 166.054 155.289 166.075 154.687C166.088 154.095 166.187 153.543 166.373 153.032C166.551 152.531 166.776 152.1 167.05 151.738Z" fill="black"/>
<path d="M160.37 159.432C161.025 158.767 161.771 158.314 162.608 158.072C163.455 157.84 164.308 157.829 165.168 158.039C166.028 158.269 166.809 158.73 167.511 159.422C168.262 160.162 168.782 160.983 169.071 161.886C169.36 162.789 169.409 163.68 169.218 164.558C169.035 165.446 168.612 166.226 167.948 166.901C167.293 167.565 166.537 168.009 165.68 168.232C164.834 168.465 163.98 168.476 163.121 168.265C162.261 168.055 161.485 167.608 160.792 166.924C160.061 166.204 159.55 165.382 159.261 164.461C158.971 163.558 158.918 162.662 159.1 161.775C159.282 160.887 159.705 160.106 160.37 159.432ZM160.827 160.107C160.331 160.611 160.08 161.15 160.075 161.725C160.07 162.3 160.234 162.874 160.568 163.447C160.893 164.029 161.307 164.568 161.811 165.064C162.238 165.485 162.698 165.855 163.19 166.172C163.683 166.507 164.18 166.754 164.681 166.91C165.191 167.076 165.682 167.12 166.153 167.041C166.614 166.972 167.032 166.747 167.406 166.367C167.893 165.873 168.148 165.329 168.172 164.735C168.196 164.141 168.055 163.543 167.749 162.942C167.434 162.351 167.015 161.797 166.493 161.283C165.904 160.702 165.264 160.231 164.573 159.868C163.892 159.515 163.221 159.34 162.561 159.345C161.901 159.35 161.323 159.604 160.827 160.107Z" fill="black"/>
<path d="M152.429 166.539C153.101 166.013 153.854 165.709 154.69 165.63C155.524 165.569 156.387 165.773 157.28 166.241C158.181 166.72 159.068 167.516 159.941 168.628C160.665 169.551 161.25 170.49 161.695 171.446C162.13 172.41 162.367 173.35 162.409 174.267C162.448 175.202 162.224 176.073 161.738 176.878C161.558 177.189 161.348 177.472 161.108 177.728C160.877 177.995 160.637 178.251 160.389 178.496C160.139 178.76 159.906 179.036 159.691 179.324C159.484 179.622 159.349 179.871 159.287 180.073C159.214 180.282 159.227 180.535 159.324 180.832L158.637 181.091C158.447 180.698 158.294 180.352 158.178 180.053C158.063 179.754 158.023 179.455 158.059 179.155C158.084 178.864 158.231 178.511 158.5 178.097C158.709 177.781 158.94 177.481 159.192 177.198C159.445 176.915 159.691 176.646 159.931 176.39C160.179 176.144 160.4 175.886 160.594 175.615C161.202 174.748 161.414 173.819 161.229 172.829C161.043 171.856 160.59 170.923 159.872 170.03L159.761 170.116C160.006 170.924 160.026 171.705 159.821 172.459C159.605 173.221 159.115 173.903 158.349 174.504C157.688 175.022 156.985 175.346 156.238 175.474C155.499 175.613 154.764 175.529 154.032 175.223C153.297 174.935 152.621 174.397 152.004 173.61C151.346 172.771 150.937 171.905 150.779 171.013C150.61 170.128 150.673 169.291 150.968 168.5C151.261 167.728 151.748 167.075 152.429 166.539ZM152.836 167.187C152.322 167.59 152.028 168.058 151.954 168.59C151.878 169.141 151.961 169.712 152.204 170.301C152.446 170.891 152.773 171.448 153.184 171.972C153.637 172.549 154.152 173.043 154.729 173.455C155.296 173.875 155.883 174.126 156.49 174.209C157.087 174.299 157.653 174.135 158.188 173.715C158.66 173.345 158.937 172.899 159.019 172.377C159.101 171.855 159.039 171.301 158.834 170.716C158.627 170.15 158.318 169.605 157.906 169.08C157.314 168.325 156.719 167.741 156.124 167.327C155.536 166.924 154.964 166.703 154.409 166.664C153.843 166.634 153.318 166.808 152.836 167.187Z" fill="black"/>
<path d="M143.78 172.417C144.583 171.942 145.421 171.695 146.292 171.676C147.17 171.668 147.998 171.876 148.775 172.3C149.547 172.742 150.184 173.388 150.686 174.237C151.221 175.144 151.513 176.071 151.562 177.018C151.61 177.965 151.429 178.839 151.019 179.639C150.616 180.45 150.006 181.096 149.191 181.578C148.388 182.053 147.544 182.288 146.659 182.284C145.78 182.292 144.953 182.084 144.176 181.66C143.399 181.236 142.763 180.606 142.268 179.768C141.746 178.884 141.463 177.959 141.419 176.994C141.371 176.047 141.548 175.167 141.952 174.356C142.355 173.545 142.965 172.898 143.78 172.417ZM144.049 173.187C143.44 173.547 143.06 174.004 142.908 174.558C142.755 175.113 142.767 175.71 142.943 176.349C143.108 176.995 143.37 177.622 143.73 178.231C144.035 178.747 144.385 179.222 144.78 179.654C145.17 180.105 145.587 180.47 146.031 180.75C146.482 181.041 146.945 181.209 147.42 181.254C147.884 181.305 148.346 181.195 148.805 180.924C149.402 180.571 149.788 180.11 149.963 179.542C150.139 178.974 150.156 178.36 150.014 177.701C149.86 177.048 149.597 176.406 149.224 175.774C148.804 175.063 148.306 174.443 147.731 173.915C147.163 173.399 146.559 173.059 145.92 172.895C145.281 172.73 144.657 172.828 144.049 173.187Z" fill="black"/>
<path d="M138.486 186.008C138.868 185.85 139.092 185.642 139.158 185.384C139.229 185.138 139.206 184.837 139.088 184.482C138.975 184.139 138.832 183.743 138.661 183.295L136.827 178.815C136.725 178.569 136.64 178.345 136.57 178.143C136.494 177.958 136.431 177.753 136.381 177.528C136.189 177.622 136 177.708 135.816 177.784C135.624 177.878 135.432 177.972 135.24 178.066L134.926 177.308L138.695 175.747L138.925 176.301C138.543 176.46 138.317 176.662 138.245 176.908C138.179 177.166 138.203 177.467 138.316 177.809C138.422 178.17 138.566 178.571 138.75 179.015L140.602 183.487C140.704 183.733 140.793 183.949 140.87 184.133C140.939 184.335 140.999 184.549 141.049 184.774C141.241 184.68 141.433 184.586 141.625 184.492C141.809 184.415 141.998 184.33 142.19 184.236L142.504 184.994L138.716 186.563L138.486 186.008ZM134.727 187.176L133.952 186.977L136.678 177.514L137.52 177.771L134.727 187.176ZM132.333 188.557C132.702 188.404 132.926 188.195 133.005 187.932C133.076 187.686 133.053 187.385 132.935 187.03C132.821 186.688 132.673 186.294 132.489 185.851L130.674 181.364C130.572 181.118 130.487 180.893 130.417 180.691C130.341 180.506 130.271 180.304 130.209 180.085C130.017 180.179 129.829 180.264 129.644 180.34C129.452 180.434 129.26 180.528 129.068 180.622L128.754 179.865L132.542 178.296L132.772 178.85C132.39 179.008 132.163 179.21 132.092 179.456C132.026 179.715 132.049 180.015 132.163 180.358C132.268 180.718 132.413 181.12 132.597 181.563L134.431 186.043C134.533 186.289 134.622 186.505 134.698 186.689C134.768 186.892 134.827 187.105 134.877 187.33C135.069 187.236 135.261 187.142 135.453 187.048C135.638 186.971 135.826 186.886 136.018 186.792L136.332 187.55L132.562 189.111L132.333 188.557ZM138.122 188.475C138.837 188.179 139.505 188.068 140.128 188.143C140.755 188.229 141.171 188.519 141.375 189.011C141.467 189.233 141.484 189.449 141.427 189.661C141.376 189.884 141.235 190.05 141.006 190.16C140.802 190.259 140.624 190.282 140.472 190.229C140.326 190.189 140.209 190.115 140.121 190.007C140.025 189.917 139.957 189.822 139.917 189.724C139.876 189.625 139.842 189.509 139.816 189.376C139.789 189.242 139.787 189.114 139.807 188.99C139.695 188.892 139.496 188.866 139.212 188.911C138.921 188.974 138.652 189.057 138.405 189.159C138.159 189.261 137.917 189.39 137.678 189.547C137.445 189.715 137.317 189.877 137.294 190.03C137.397 190.103 137.486 190.196 137.561 190.309C137.637 190.422 137.695 190.528 137.736 190.627C137.777 190.725 137.802 190.838 137.811 190.964C137.813 191.107 137.776 191.245 137.701 191.377C137.631 191.522 137.488 191.631 137.274 191.706C137.047 191.785 136.836 191.764 136.642 191.643C136.44 191.539 136.293 191.376 136.201 191.154C135.997 190.661 136.086 190.163 136.469 189.658C136.857 189.165 137.408 188.771 138.122 188.475Z" fill="black"/>
<path d="M116.418 193.52C116.565 194.292 116.794 194.853 117.105 195.201C117.418 195.562 117.784 195.77 118.202 195.826C118.622 195.895 119.08 195.876 119.575 195.768L121.002 195.455C121.484 195.35 121.795 195.168 121.936 194.91C122.08 194.666 122.131 194.364 122.089 194.006C122.048 193.647 121.984 193.239 121.896 192.78L121.361 189.971L119.777 190.314C118.697 190.56 117.78 190.661 117.024 190.615C116.258 190.584 115.62 190.441 115.11 190.186C114.6 189.93 114.206 189.571 113.927 189.108C113.638 188.661 113.438 188.143 113.325 187.553C113.165 186.715 113.231 185.956 113.522 185.276C113.816 184.609 114.28 184.053 114.914 183.606C115.548 183.159 116.31 182.851 117.201 182.681L122.938 181.587L123.061 182.235C122.566 182.343 122.247 182.519 122.103 182.764C121.963 183.022 121.921 183.335 121.977 183.704C122.024 184.089 122.093 184.524 122.185 185.008L123.785 193.397C123.835 193.659 123.876 193.909 123.908 194.147C123.943 194.399 123.972 194.624 123.996 194.823C124.23 194.765 124.463 194.707 124.696 194.649C124.929 194.591 125.163 194.533 125.396 194.475L125.561 195.339L116.445 197.078L115.691 193.658L116.418 193.52ZM120.315 184.49C120.248 184.136 120.197 183.834 120.162 183.582C120.115 183.333 120.088 183.121 120.082 182.946C119.87 182.973 119.618 183.007 119.328 183.049C119.026 183.107 118.751 183.159 118.503 183.207C118.241 183.256 118.07 183.289 117.992 183.304C116.983 183.496 116.228 183.912 115.725 184.551C115.21 185.192 115.05 186.03 115.248 187.065C115.413 187.929 115.696 188.56 116.098 188.959C116.489 189.373 116.957 189.623 117.503 189.709C118.036 189.797 118.603 189.784 119.206 189.669C119.599 189.594 119.958 189.519 120.283 189.443C120.597 189.383 120.909 189.31 121.218 189.224L120.315 184.49Z" fill="black"/>
<path d="M109.438 178.318C109.851 178.295 110.209 178.376 110.513 178.56C110.817 178.744 110.98 179.042 111.002 179.455C111.015 179.694 110.947 179.918 110.798 180.127C110.649 180.335 110.448 180.446 110.195 180.46C109.876 180.49 109.658 180.402 109.54 180.195C109.408 179.988 109.338 179.805 109.33 179.645C109.328 179.605 109.325 179.565 109.323 179.526C109.32 179.472 109.324 179.419 109.335 179.365C109.293 179.34 109.219 179.331 109.113 179.337C108.953 179.345 108.784 179.421 108.604 179.564C108.425 179.708 108.269 179.91 108.136 180.171C107.979 180.473 107.803 180.923 107.609 181.521C107.401 182.12 107.172 182.833 106.923 183.661L110.399 190.163C110.786 190.89 111.071 191.469 111.254 191.899C111.424 192.331 111.542 192.652 111.607 192.862L112.563 192.77L112.607 193.589L108.474 193.812L108.441 193.213L108.521 193.209C109.078 193.139 109.373 192.909 109.405 192.52C109.438 192.144 109.254 191.58 108.853 190.827L106.245 185.941C105.985 186.81 105.738 187.664 105.503 188.505C105.268 189.359 105.034 190.206 104.799 191.047C104.708 191.345 104.618 191.651 104.528 191.963C104.425 192.289 104.327 192.574 104.234 192.82C104.128 193.079 104.03 193.245 103.94 193.316L105.314 193.162L105.358 193.981L102.223 194.15L102.19 193.551C102.673 193.338 103.029 193.005 103.258 192.552C103.474 192.113 103.691 191.547 103.907 190.855L106.027 183.75C106.366 182.61 106.681 181.645 106.972 180.854C107.262 180.051 107.596 179.439 107.974 179.018C108.351 178.583 108.839 178.35 109.438 178.318Z" fill="black"/>
<path d="M101.59 180.627L101.241 184.933L100.423 184.866C100.104 184.841 99.8327 184.892 99.6082 185.021C99.3826 185.163 99.1486 185.492 98.9061 186.007C98.7276 186.394 98.5657 186.823 98.4205 187.292C98.2621 187.761 98.1193 188.285 97.9921 188.863C97.8638 189.454 97.7445 190.1 97.6341 190.8C97.5238 191.5 97.4214 192.268 97.3268 193.103L99.0875 193.166L99.0179 194.023L90.2069 193.307L90.2555 192.709C90.6675 192.743 90.9618 192.66 91.1385 192.46C91.3142 192.274 91.4304 191.995 91.4872 191.626C91.5429 191.269 91.5902 190.851 91.629 190.373L92.0206 185.549C92.0555 185.284 92.0882 185.046 92.1188 184.834C92.1482 184.636 92.1921 184.426 92.2503 184.203L90.4298 184.135L90.7858 179.75L91.5433 179.811C91.4548 180.901 91.4977 181.774 91.6718 182.43C91.8327 183.085 92.2453 183.44 92.9098 183.494L98.8702 183.978C99.5214 184.031 99.9919 183.755 100.282 183.149C100.56 182.53 100.743 181.668 100.833 180.565L101.59 180.627ZM98.6293 184.721L95.061 184.431C94.6491 184.398 94.3552 184.474 94.1796 184.661C93.9896 184.859 93.8667 185.137 93.811 185.493C93.7409 185.862 93.6864 186.286 93.6476 186.764L93.269 191.429C93.2474 191.695 93.2285 191.927 93.2123 192.127C93.1818 192.338 93.144 192.556 93.0991 192.78L95.1723 192.948C95.5843 192.981 95.8797 192.885 96.0586 192.659C96.2242 192.431 96.3503 192.114 96.4369 191.706C96.5756 190.821 96.7366 189.992 96.9199 189.217C97.0888 188.455 97.2573 187.78 97.4254 187.191C97.5792 186.615 97.7294 186.166 97.876 185.843C97.9895 185.599 98.1075 185.381 98.23 185.19C98.3514 185.013 98.4845 184.856 98.6293 184.721Z" fill="black"/>
<path d="M89.8112 183.151L89.6853 183.738C89.2001 183.647 88.8551 183.73 88.6501 183.986C88.4294 184.252 88.2644 184.64 88.1553 185.148L86.9846 190.604C86.9286 190.865 86.8797 191.093 86.8377 191.288C86.7799 191.494 86.7077 191.704 86.621 191.917C86.8324 191.949 87.0438 191.98 87.2551 192.012C87.4507 192.054 87.6542 192.091 87.8655 192.123L87.6935 192.924L83.7043 192.068L83.8302 191.482C84.2213 191.566 84.5212 191.535 84.7298 191.388C84.9254 191.239 85.0656 191.031 85.1504 190.763C85.2325 190.508 85.3001 190.256 85.3532 190.008L85.7393 188.209L84.5185 187.988C83.4569 187.788 82.6543 187.493 82.1105 187.103C81.551 186.724 81.1949 186.286 81.0423 185.79C80.8739 185.304 80.8456 184.8 80.9575 184.279C81.0918 183.653 81.355 183.157 81.7472 182.791C82.1263 182.423 82.5808 182.179 83.1107 182.061C83.6407 181.943 84.1924 181.945 84.766 182.069L89.8112 183.151ZM86.8232 183.349C86.6826 183.305 86.508 183.261 86.2994 183.216C86.0778 183.168 85.8758 183.125 85.6932 183.086C85.4977 183.044 85.3673 183.016 85.3022 183.002C84.7025 182.873 84.1605 182.92 83.6762 183.144C83.1788 183.364 82.849 183.853 82.6868 184.609C82.5441 185.274 82.6291 185.831 82.9419 186.28C83.2388 186.739 83.7263 187.041 84.4042 187.187C84.691 187.248 84.9596 187.299 85.2101 187.339C85.4448 187.389 85.6743 187.432 85.8987 187.466L86.5491 184.435C86.6023 184.188 86.655 183.974 86.7072 183.794C86.7463 183.612 86.785 183.463 86.8232 183.349Z" fill="black"/>
<path d="M71.1406 177.404C71.9659 177.746 72.6531 178.247 73.2022 178.907C73.7339 179.575 74.0637 180.346 74.1917 181.222C74.3023 182.105 74.151 183.045 73.7377 184.043C73.4724 184.683 73.0977 185.257 72.6137 185.764C72.1296 186.27 71.5787 186.677 70.9608 186.984C70.3256 187.298 69.6537 187.475 68.945 187.513C68.2364 187.552 67.5248 187.423 66.8104 187.127C66.1205 186.841 65.5665 186.489 65.1481 186.07C64.7175 185.647 64.4319 185.204 64.2915 184.741C64.151 184.279 64.165 183.845 64.3333 183.438C64.4456 183.167 64.6164 182.964 64.8459 182.828C65.0702 182.704 65.3241 182.701 65.6074 182.819C65.9205 182.934 66.1039 183.118 66.1578 183.371C66.1942 183.632 66.1793 183.842 66.113 184.002C66.062 184.125 65.9925 184.241 65.9045 184.349C65.8114 184.469 65.6865 184.562 65.5297 184.626C65.5058 184.963 65.589 185.25 65.7792 185.487C65.9643 185.737 66.1848 185.937 66.4405 186.086C66.6788 186.242 66.8841 186.356 67.0566 186.428C67.8942 186.775 68.7429 186.729 69.6025 186.292C70.4446 185.861 71.131 185.005 71.6616 183.724C72.0035 182.899 72.1777 182.112 72.1843 181.365C72.1786 180.612 72.0121 179.951 71.6847 179.383C71.3523 178.826 70.8719 178.418 70.2437 178.158C69.6647 177.918 69.0466 177.843 68.3894 177.931C67.7321 178.02 67.1638 178.225 66.6845 178.546L66.3571 177.977C66.8917 177.592 67.4532 177.334 68.0417 177.203C68.6178 177.066 69.1767 177.023 69.7183 177.074C70.2476 177.121 70.7217 177.23 71.1406 177.404Z" fill="black"/>
<path d="M62.0794 172.918C62.8882 173.384 63.5154 173.992 63.961 174.741C64.4 175.501 64.6263 176.324 64.6398 177.209C64.6351 178.098 64.3866 178.971 63.8942 179.826C63.3685 180.739 62.7054 181.449 61.9049 181.957C61.1043 182.466 60.255 182.738 59.3569 182.775C58.4521 182.823 57.5895 182.611 56.7692 182.139C55.9604 181.673 55.3398 181.054 54.9075 180.282C54.4685 179.521 54.2422 178.698 54.2287 177.813C54.2152 176.929 54.4513 176.065 54.9371 175.221C55.4494 174.331 56.115 173.63 56.9337 173.117C57.7342 172.608 58.5869 172.33 59.4917 172.282C60.3965 172.234 61.259 172.446 62.0794 172.918ZM61.5415 173.532C60.9291 173.179 60.344 173.073 59.7862 173.213C59.2284 173.354 58.7147 173.658 58.2451 174.126C57.7639 174.587 57.347 175.124 56.9943 175.737C56.6948 176.257 56.454 176.795 56.2719 177.352C56.0715 177.913 55.9589 178.456 55.934 178.98C55.9024 179.516 55.9842 180.002 56.1796 180.437C56.3633 180.866 56.6863 181.214 57.1485 181.48C57.7493 181.826 58.3402 181.935 58.9211 181.808C59.502 181.681 60.0446 181.394 60.5489 180.946C61.0416 180.491 61.4709 179.946 61.8369 179.31C62.2495 178.594 62.5439 177.856 62.7201 177.096C62.8897 176.347 62.8887 175.654 62.7173 175.017C62.5458 174.379 62.1538 173.884 61.5415 173.532Z" fill="black"/>
<path d="M53.2148 167.038C53.8937 167.555 54.377 168.208 54.6646 168.996C54.9335 169.788 54.9537 170.675 54.7252 171.657C54.4886 172.65 53.9422 173.709 53.086 174.833C52.3752 175.767 51.6133 176.569 50.8004 177.24C49.9768 177.904 49.1268 178.371 48.2501 178.642C47.3547 178.915 46.456 178.918 45.554 178.65C45.208 178.554 44.8809 178.423 44.5728 178.255C44.2566 178.098 43.9485 177.931 43.6484 177.752C43.3297 177.577 43.0042 177.421 42.6718 177.285C42.3314 177.16 42.0559 177.093 41.8453 177.083C41.6241 177.066 41.3822 177.141 41.1196 177.31L40.696 176.711C41.0287 176.428 41.3251 176.193 41.5851 176.005C41.8452 175.818 42.1247 175.704 42.4236 175.663C42.712 175.615 43.0903 175.668 43.5585 175.824C43.9176 175.946 44.2659 176.094 44.6033 176.267C44.9407 176.44 45.2635 176.611 45.5716 176.778C45.8716 176.957 46.1772 177.105 46.4884 177.225C47.4804 177.595 48.4326 177.566 49.3451 177.138C50.2389 176.712 51.0278 176.039 51.7119 175.119L51.6005 175.034C50.8799 175.474 50.129 175.69 49.3477 175.682C48.5558 175.665 47.7726 175.362 46.9983 174.773C46.33 174.264 45.8396 173.664 45.5273 172.974C45.2069 172.294 45.103 171.561 45.2154 170.776C45.3091 169.992 45.6588 169.203 46.2646 168.407C46.9109 167.559 47.646 166.945 48.4701 166.567C49.2836 166.181 50.1101 166.031 50.9495 166.117C51.7702 166.206 52.5253 166.513 53.2148 167.038ZM52.6907 167.594C52.171 167.198 51.6442 167.032 51.1103 167.094C50.5579 167.16 50.0269 167.384 49.5174 167.767C49.0079 168.15 48.5513 168.607 48.1474 169.137C47.7031 169.72 47.3546 170.343 47.1017 171.005C46.8383 171.659 46.743 172.291 46.8159 172.899C46.8782 173.5 47.1799 174.006 47.7209 174.418C48.1982 174.781 48.6998 174.937 49.2255 174.885C49.7512 174.833 50.2714 174.634 50.7859 174.288C51.2817 173.945 51.7316 173.509 52.1355 172.978C52.7171 172.214 53.133 171.492 53.3833 170.811C53.6255 170.141 53.6953 169.532 53.5926 168.985C53.4793 168.429 53.1787 167.966 52.6907 167.594Z" fill="black"/>
<path d="M45.3606 160.165C46.023 160.823 46.4735 161.57 46.7123 162.409C46.9416 163.256 46.9494 164.11 46.7357 164.968C46.5031 165.827 46.0393 166.607 45.3441 167.307C44.602 168.054 43.7789 168.571 42.8749 168.857C41.9708 169.143 41.08 169.189 40.2025 168.994C39.3156 168.809 38.5362 168.383 37.8644 167.716C37.202 167.058 36.7608 166.301 36.5409 165.444C36.3115 164.596 36.3037 163.743 36.5174 162.884C36.7312 162.025 37.1809 161.251 37.8666 160.56C38.59 159.831 39.4131 159.324 40.336 159.038C41.2401 158.752 42.1356 158.701 43.0225 158.887C43.9094 159.072 44.6888 159.498 45.3606 160.165ZM44.6834 160.62C44.1819 160.122 43.6436 159.869 43.0685 159.862C42.4933 159.855 41.9188 160.017 41.3449 160.349C40.7615 160.672 40.2209 161.084 39.723 161.586C39.3003 162.011 38.9295 162.47 38.6108 162.961C38.2731 163.453 38.0251 163.949 37.8666 164.449C37.6988 164.959 37.6534 165.449 37.7306 165.92C37.7982 166.382 38.0213 166.801 38.3998 167.177C38.8918 167.665 39.4349 167.922 40.029 167.948C40.623 167.975 41.2212 167.836 41.8235 167.532C42.4164 167.218 42.9711 166.802 43.4878 166.281C44.0702 165.695 44.544 165.056 44.9092 164.367C45.265 163.687 45.4417 163.017 45.4393 162.357C45.4369 161.697 45.1849 161.118 44.6834 160.62Z" fill="black"/>
<path d="M30.9282 158.559C31.1787 158.888 31.4372 159.051 31.7038 159.049C31.9599 159.056 32.2445 158.956 32.5577 158.751C32.8603 158.554 33.2065 158.316 33.5965 158.036L37.4593 155.119C37.6715 154.958 37.8665 154.818 38.0443 154.699C38.2034 154.578 38.3853 154.465 38.5898 154.359C38.45 154.197 38.3195 154.037 38.1983 153.878C38.0585 153.716 37.9186 153.555 37.7788 153.393L38.4312 152.896L40.9029 156.142L40.4255 156.506C40.1751 156.177 39.9219 156.009 39.6658 156.003C39.3992 156.005 39.1146 156.105 38.812 156.302C38.4907 156.496 38.1392 156.738 37.7573 157.029L33.9066 159.961C33.6944 160.123 33.5087 160.264 33.3496 160.385C33.1718 160.504 32.9806 160.616 32.7761 160.722C32.9159 160.883 33.0558 161.045 33.1956 161.207C33.3168 161.366 33.4473 161.526 33.5871 161.688L32.9347 162.185L30.4509 158.923L30.9282 158.559ZM28.8399 155.222L28.834 154.422L38.6799 154.642L38.6463 155.523L28.8399 155.222ZM26.8935 153.26C27.1358 153.579 27.3944 153.742 27.6691 153.751C27.9252 153.757 28.2098 153.657 28.523 153.452C28.8255 153.256 29.1678 153.012 29.5496 152.721L33.4246 149.821C33.6368 149.659 33.8318 149.519 34.0096 149.4C34.1687 149.279 34.3465 149.161 34.543 149.044C34.4031 148.883 34.2726 148.722 34.1515 148.563C34.0116 148.402 33.8718 148.24 33.7319 148.078L34.3843 147.582L36.8682 150.844L36.3908 151.207C36.1404 150.878 35.8872 150.711 35.6311 150.705C35.3645 150.707 35.0798 150.806 34.7773 151.003C34.456 151.197 34.1044 151.44 33.7225 151.731L29.8597 154.647C29.6475 154.808 29.4619 154.95 29.3028 155.071C29.125 155.189 28.9338 155.302 28.7292 155.407C28.8691 155.569 29.0089 155.73 29.1488 155.892C29.2699 156.051 29.4004 156.211 29.5403 156.373L28.8879 156.87L26.4161 153.624L26.8935 153.26ZM28.4502 158.837C28.9187 159.452 29.1966 160.07 29.2837 160.691C29.3603 161.32 29.1865 161.796 28.7621 162.119C28.5712 162.264 28.3664 162.337 28.1477 162.335C27.9184 162.342 27.7217 162.249 27.5577 162.056C27.4097 161.883 27.3418 161.717 27.354 161.557C27.3556 161.405 27.3973 161.273 27.4791 161.16C27.5423 161.045 27.6163 160.955 27.7012 160.891C27.786 160.826 27.8896 160.764 28.0118 160.704C28.134 160.645 28.2578 160.609 28.383 160.598C28.4487 160.464 28.4233 160.265 28.3067 160.002C28.1714 159.737 28.023 159.498 27.8615 159.285C27.6999 159.073 27.5131 158.872 27.301 158.682C27.0784 158.499 26.8898 158.417 26.7352 158.434C26.6907 158.551 26.6235 158.661 26.5336 158.763C26.4437 158.865 26.3563 158.948 26.2714 159.013C26.1866 159.078 26.0843 159.13 25.9646 159.171C25.8262 159.21 25.6835 159.209 25.5366 159.17C25.379 159.14 25.2369 159.03 25.1102 158.841C24.9754 158.642 24.9418 158.433 25.0096 158.214C25.0586 157.993 25.1786 157.809 25.3696 157.664C25.7939 157.34 26.2989 157.299 26.8847 157.541C27.4599 157.79 27.9817 158.222 28.4502 158.837Z" fill="black"/>
<path d="M17.9972 139.081C17.2871 139.42 16.8031 139.783 16.5453 140.172C16.2755 140.567 16.1665 140.973 16.2183 141.392C16.258 141.816 16.3929 142.254 16.6229 142.705L17.2873 144.006C17.5116 144.446 17.7663 144.701 18.0512 144.772C18.3241 144.849 18.6288 144.822 18.9652 144.691C19.3016 144.56 19.6805 144.394 20.1017 144.193L22.6834 142.963L21.9502 141.517C21.4379 140.536 21.1082 139.674 20.9611 138.931C20.7963 138.183 20.7728 137.529 20.8906 136.971C21.0085 136.412 21.2559 135.94 21.6329 135.553C21.9922 135.161 22.4426 134.835 22.9842 134.577C23.7545 134.21 24.5054 134.081 25.2369 134.19C25.9564 134.305 26.6126 134.612 27.2056 135.113C27.7985 135.613 28.2901 136.272 28.6802 137.091L31.1933 142.362L30.5975 142.646C30.3674 142.195 30.1159 141.93 29.843 141.854C29.5581 141.783 29.2443 141.822 28.9015 141.97C28.541 142.112 28.1381 142.29 27.6928 142.502L19.9839 146.177C19.7432 146.292 19.5117 146.395 19.2893 146.486C19.0549 146.583 18.8445 146.668 18.6582 146.742C18.7736 146.953 18.8889 147.164 19.0042 147.375C19.1195 147.586 19.2348 147.797 19.3501 148.008L18.5558 148.387L14.5624 140.01L17.6788 138.413L17.9972 139.081ZM27.7203 140.561C28.0453 140.406 28.325 140.28 28.5594 140.184C28.7881 140.074 28.9864 139.995 29.1543 139.944C29.0746 139.746 28.9776 139.511 28.8634 139.241C28.7314 138.964 28.611 138.711 28.5019 138.483C28.3872 138.242 28.3126 138.086 28.2782 138.013C27.8364 137.087 27.2428 136.461 26.4975 136.137C25.7464 135.801 24.8954 135.859 23.9446 136.313C23.1502 136.691 22.6113 137.125 22.3277 137.615C22.0264 138.099 21.9034 138.615 21.9586 139.165C22.0082 139.702 22.1649 140.248 22.4288 140.802C22.601 141.163 22.7648 141.491 22.9202 141.786C23.0579 142.075 23.2077 142.358 23.3694 142.635L27.7203 140.561Z" fill="black"/>
<path d="M30.9484 128.602C31.0745 128.995 31.0871 129.362 30.9861 129.703C30.8851 130.043 30.6379 130.276 30.2442 130.402C30.0157 130.476 29.7817 130.466 29.5425 130.375C29.3032 130.284 29.1449 130.117 29.0676 129.876C28.9573 129.576 28.9874 129.342 29.158 129.175C29.3246 128.996 29.4841 128.882 29.6364 128.833C29.6745 128.821 29.7126 128.809 29.7507 128.796C29.8015 128.78 29.8543 128.77 29.9092 128.767C29.9224 128.72 29.9127 128.646 29.8801 128.545C29.8313 128.392 29.715 128.248 29.531 128.111C29.3471 127.974 29.1121 127.874 28.8261 127.811C28.4939 127.736 28.0139 127.68 27.386 127.643C26.7541 127.593 26.0061 127.553 25.1421 127.522L19.7325 132.531C19.1272 133.089 18.6394 133.511 18.2692 133.798C17.8949 134.072 17.6144 134.267 17.4275 134.382L17.7585 135.285L16.9776 135.535L15.7144 131.592L16.2858 131.409L16.3102 131.485C16.5192 132.006 16.8159 132.233 17.2004 132.166C17.5722 132.103 18.0714 131.782 18.6981 131.203L22.7648 127.443C21.8586 127.412 20.9691 127.388 20.0964 127.374C19.2111 127.364 18.332 127.351 17.4594 127.337C17.1475 127.325 16.8292 127.315 16.5046 127.307C16.1633 127.29 15.8621 127.268 15.601 127.239C15.3231 127.202 15.1382 127.149 15.0462 127.081L15.5434 128.371L14.7625 128.621L13.8045 125.631L14.3759 125.447C14.7042 125.86 15.1165 126.12 15.6128 126.227C16.0924 126.326 16.6946 126.392 17.4194 126.426L24.8294 126.677C26.018 126.716 27.0314 126.776 27.8696 126.858C28.7204 126.935 29.3974 127.103 29.9003 127.362C30.416 127.617 30.7653 128.03 30.9484 128.602Z" fill="black"/>
<path d="M26.7585 121.792L22.506 122.553L22.3616 121.745C22.3052 121.43 22.1861 121.181 22.0042 120.997C21.8091 120.815 21.4315 120.673 20.8712 120.57C20.4517 120.496 19.9962 120.448 19.505 120.428C19.0113 120.394 18.4687 120.39 17.8771 120.414C17.2724 120.441 16.6176 120.491 15.9125 120.563C15.2075 120.634 14.4392 120.731 13.6077 120.853L13.9963 122.571L13.1497 122.723L11.5932 114.021L12.1838 113.915C12.2566 114.322 12.4121 114.586 12.6503 114.705C12.8753 114.828 13.1739 114.869 13.5461 114.83C13.9052 114.793 14.321 114.732 14.7935 114.647L19.5579 113.795C19.8227 113.761 20.0613 113.732 20.2737 113.708C20.4729 113.685 20.6876 113.674 20.9178 113.674L20.5185 111.896L24.8498 111.121L24.9836 111.87C23.9074 112.062 23.0742 112.326 22.4841 112.662C21.8917 112.985 21.6541 113.474 21.7715 114.13L22.8245 120.017C22.9395 120.66 23.3266 121.045 23.9857 121.171C24.6556 121.281 25.5353 121.239 26.6247 121.044L26.7585 121.792ZM22.0446 119.974L21.4143 116.45C21.3415 116.043 21.1926 115.778 20.9676 115.656C20.727 115.523 20.4272 115.475 20.0682 115.512C19.6936 115.538 19.2701 115.594 18.7976 115.678L14.1907 116.502C13.9282 116.549 13.6985 116.59 13.5017 116.626C13.2893 116.65 13.0692 116.669 12.8414 116.683L13.2076 118.73C13.2804 119.137 13.449 119.398 13.7134 119.513C13.9755 119.615 14.3147 119.656 14.731 119.636C15.6221 119.544 16.4654 119.488 17.2609 119.468C18.0409 119.437 18.7368 119.428 19.3486 119.44C19.9448 119.442 20.4176 119.472 20.7669 119.532C21.0327 119.579 21.2734 119.637 21.4891 119.707C21.6916 119.779 21.8768 119.868 22.0446 119.974Z" fill="black"/>
<path d="M21.335 111.259L20.7358 111.289C20.6977 110.797 20.5285 110.485 20.2282 110.354C19.9139 110.209 19.4971 110.15 18.9777 110.176L13.4048 110.456C13.1384 110.469 12.9054 110.481 12.7056 110.491C12.4919 110.488 12.2708 110.473 12.0425 110.444C12.0665 110.657 12.0905 110.869 12.1145 111.081C12.1245 111.281 12.1415 111.487 12.1656 111.7L11.3466 111.741L11.142 107.666L11.7412 107.636C11.7613 108.035 11.8689 108.317 12.064 108.481C12.2585 108.631 12.4962 108.713 12.7772 108.725C13.0448 108.739 13.3052 108.739 13.5582 108.726L15.3959 108.634L15.2938 107.397C15.213 106.32 15.2904 105.468 15.5259 104.843C15.7475 104.204 16.0784 103.747 16.5184 103.471C16.9445 103.183 17.4239 103.025 17.9565 102.998C18.5957 102.966 19.1427 103.092 19.5976 103.377C20.0517 103.647 20.4043 104.024 20.6555 104.505C20.9066 104.986 21.0469 105.52 21.0763 106.106L21.335 111.259ZM20.3716 108.424C20.3776 108.277 20.3752 108.097 20.3645 107.884C20.3532 107.657 20.3428 107.451 20.3334 107.265C20.3234 107.065 20.3167 106.932 20.3134 106.865C20.2826 106.252 20.0968 105.741 19.7558 105.331C19.4141 104.908 18.8571 104.715 18.0847 104.754C17.4056 104.788 16.8896 105.014 16.5368 105.433C16.17 105.838 16.004 106.387 16.0388 107.08C16.0535 107.373 16.0738 107.645 16.0999 107.898C16.1119 108.137 16.1302 108.37 16.1549 108.596L19.251 108.44C19.504 108.428 19.7241 108.423 19.9112 108.427C20.0976 108.418 20.2511 108.417 20.3716 108.424Z" fill="black"/>
<path d="M22.0949 91.2283C21.9748 92.1135 21.6655 92.9058 21.167 93.6051C20.657 94.2894 19.995 94.8051 19.181 95.1521C18.3555 95.4842 17.4077 95.5776 16.3375 95.4324C15.6505 95.3392 15.0003 95.1232 14.3869 94.7843C13.7736 94.4455 13.2397 94.0165 12.7854 93.4974C12.3196 92.9632 11.9778 92.3585 11.76 91.683C11.5421 91.0076 11.4852 90.2868 11.5892 89.5205C11.6895 88.7806 11.8888 88.155 12.1869 87.6438C12.4868 87.1193 12.8423 86.7303 13.2535 86.4766C13.6646 86.2229 14.0882 86.1256 14.5242 86.1847C14.8149 86.2242 15.0552 86.3375 15.2451 86.5247C15.4217 86.7102 15.4895 86.9548 15.4482 87.2587C15.4166 87.5908 15.2853 87.8152 15.0542 87.9318C14.8116 88.0335 14.6045 88.0727 14.4327 88.0494C14.3006 88.0314 14.1712 87.9937 14.0444 87.9361C13.9045 87.8768 13.7831 87.7796 13.6803 87.6445C13.3489 87.7072 13.0926 87.8608 12.9114 88.1054C12.717 88.3481 12.5803 88.6121 12.5012 88.8974C12.4107 89.1677 12.3529 89.3953 12.3278 89.5803C12.2059 90.4787 12.4662 91.2877 13.1086 92.0073C13.7397 92.7118 14.7422 93.1573 16.1163 93.3437C17.0015 93.4638 17.8065 93.4318 18.5311 93.2475C19.2576 93.05 19.854 92.7205 20.3203 92.259C20.7733 91.7957 21.0456 91.2272 21.137 90.5533C21.2212 89.9324 21.1367 89.3154 20.8835 88.7025C20.6302 88.0895 20.2873 87.5922 19.8547 87.2106L20.321 86.7491C20.8293 87.1679 21.222 87.645 21.4992 88.1805C21.7782 88.7028 21.962 89.2323 22.0507 89.7691C22.1411 90.2926 22.1559 90.779 22.0949 91.2283Z" fill="black"/>
<path d="M24.0864 81.4016C23.8423 82.3024 23.4149 83.0638 22.8043 83.6858C22.1809 84.3042 21.4431 84.7328 20.5909 84.9716C19.7294 85.194 18.8225 85.1762 17.8702 84.9181C16.8536 84.6426 15.9974 84.1826 15.3017 83.5383C14.606 82.8939 14.126 82.1421 13.8615 81.283C13.5841 80.4204 13.5692 79.5323 13.8168 78.6186C14.0609 77.7178 14.5012 76.9598 15.1375 76.3449C15.761 75.7264 16.4988 75.2978 17.3509 75.059C18.203 74.8203 19.0988 74.8282 20.0382 75.0828C21.0292 75.3513 21.8771 75.8159 22.5822 76.4767C23.2779 77.1211 23.7644 77.8746 24.0418 78.7372C24.3191 79.5997 24.334 80.4879 24.0864 81.4016ZM23.3561 81.0379C23.5409 80.3558 23.4944 79.763 23.2164 79.2595C22.9384 78.7559 22.5133 78.3368 21.9409 78.0021C21.372 77.6545 20.7465 77.3883 20.0645 77.2035C19.4853 77.0465 18.9034 76.951 18.3186 76.9168C17.7245 76.8664 17.1708 76.8959 16.6576 77.0055C16.1316 77.1116 15.6828 77.3146 15.3115 77.6146C14.9436 77.9017 14.6899 78.3026 14.5504 78.8174C14.369 79.4866 14.4138 80.0858 14.6848 80.6151C14.9558 81.1444 15.3723 81.5957 15.9342 81.9691C16.4996 82.3295 17.1362 82.6056 17.844 82.7974C18.6419 83.0136 19.4308 83.11 20.2108 83.0865C20.9779 83.0596 21.6476 82.8819 22.2201 82.5535C22.7926 82.2252 23.1713 81.72 23.3561 81.0379Z" fill="black"/>
<path d="M27.5342 71.2375C27.2047 72.0246 26.6944 72.6566 26.0034 73.1334C25.3052 73.5928 24.452 73.8355 23.4437 73.8616C22.4232 73.8825 21.2611 73.6201 19.9573 73.0744C18.875 72.6214 17.9066 72.086 17.0522 71.4682C16.203 70.8381 15.5369 70.1329 15.0541 69.3526C14.5641 68.5549 14.3353 67.6858 14.3676 66.7454C14.3733 66.3864 14.4184 66.0367 14.5031 65.6964C14.5755 65.3508 14.6601 65.0105 14.7571 64.6752C14.8469 64.3225 14.9156 63.9683 14.9634 63.6125C14.9989 63.2515 14.9947 62.9679 14.9509 62.7617C14.9123 62.5432 14.7783 62.3281 14.5489 62.1164L15.0221 61.5557C15.3797 61.8065 15.6819 62.0342 15.9287 62.2387C16.1756 62.4432 16.3562 62.685 16.4706 62.9642C16.5902 63.231 16.6337 63.6106 16.6011 64.1028C16.5728 64.4812 16.5173 64.8555 16.4346 65.2256C16.352 65.5958 16.2683 65.951 16.1837 66.2914C16.0867 66.6266 16.0195 66.9598 15.9821 67.2911C15.8737 68.3442 16.1414 69.2585 16.7853 70.0339C17.422 70.7919 18.2718 71.3861 19.3347 71.8165L19.3888 71.6873C18.7815 71.1007 18.3837 70.4283 18.1951 69.67C18.0118 68.8995 18.108 68.0653 18.4838 67.1674C18.8081 66.3926 19.265 65.7671 19.8545 65.2912C20.4317 64.8101 21.1148 64.525 21.9036 64.436C22.6853 64.3296 23.5374 64.4694 24.4599 64.8555C25.4438 65.2674 26.2224 65.8246 26.7956 66.527C27.374 67.2172 27.7271 67.9793 27.855 68.8134C27.9757 69.63 27.8688 70.438 27.5342 71.2375ZM26.864 70.8702C27.1162 70.2675 27.1448 69.7158 26.9497 69.215C26.7475 68.6967 26.397 68.2392 25.8981 67.8425C25.3993 67.4458 24.8424 67.1187 24.2274 66.8613C23.5509 66.5782 22.8604 66.3976 22.156 66.3195C21.4566 66.2291 20.8216 66.2958 20.251 66.5195C19.6855 66.7309 19.2715 67.1502 19.009 67.7775C18.7773 68.331 18.7529 68.8555 18.9357 69.3512C19.1184 69.8469 19.4418 70.3003 19.9058 70.7113C20.3626 71.1048 20.8984 71.4303 21.5134 71.6877C22.399 72.0584 23.2027 72.2792 23.9247 72.3501C24.6343 72.4158 25.2411 72.3302 25.7451 72.093C26.2542 71.8436 26.6272 71.436 26.864 70.8702Z" fill="black"/>
<path d="M32.1346 61.9858C31.6658 62.7928 31.0561 63.4178 30.3054 63.8607C29.5432 64.2969 28.7197 64.5201 27.8348 64.5304C26.9451 64.5224 26.0736 64.2707 25.2204 63.7751C24.3096 63.246 23.6015 62.5803 23.0962 61.7779C22.5908 60.9756 22.3214 60.1252 22.2881 59.227C22.2432 58.322 22.4585 57.4602 22.934 56.6416C23.4028 55.8346 24.0241 55.2163 24.7978 54.7868C25.56 54.3506 26.3835 54.1274 27.2684 54.1171C28.1533 54.1068 29.0165 54.3461 29.8582 54.835C30.746 55.3507 31.4449 56.0188 31.9551 56.8394C32.4605 57.6418 32.7356 58.4955 32.7805 59.4004C32.8253 60.3054 32.61 61.1672 32.1346 61.9858ZM31.5232 61.4456C31.8781 60.8345 31.9864 60.2498 31.8481 59.6915C31.7099 59.1332 31.4075 58.6184 30.9412 58.147C30.4815 57.6642 29.9462 57.2453 29.3351 56.8903C28.8163 56.589 28.2788 56.3462 27.7228 56.162C27.1619 55.9596 26.6195 55.8449 26.0954 55.8181C25.5598 55.7845 25.0738 55.8646 24.6375 56.0583C24.2078 56.2405 23.8591 56.5622 23.5912 57.0234C23.243 57.6229 23.1313 58.2133 23.2562 58.7947C23.3811 59.3761 23.6666 59.9198 24.1129 60.4257C24.5659 60.9201 25.1094 61.3514 25.7435 61.7198C26.4584 62.135 27.1955 62.4321 27.955 62.6111C28.703 62.7834 29.3959 62.785 30.0339 62.6159C30.6718 62.4468 31.1682 62.0567 31.5232 61.4456Z" fill="black"/>
<path d="M29.9124 47.7492C29.6573 48.0744 29.5642 48.3657 29.6333 48.6233C29.6918 48.8727 29.8597 49.1231 30.137 49.3745C30.4037 49.6177 30.7218 49.8928 31.0911 50.1996L34.8863 53.2033C35.0961 53.3679 35.2808 53.5213 35.4404 53.6635C35.5977 53.787 35.7532 53.9344 35.9068 54.1058C36.0281 53.9298 36.1504 53.7631 36.2739 53.6058C36.3951 53.4297 36.5163 53.2536 36.6375 53.0776L37.2826 53.5838L34.7638 56.7935L34.2918 56.4231C34.5469 56.0979 34.6453 55.8107 34.5867 55.5613C34.5176 55.3037 34.3497 55.0533 34.083 54.8101C33.814 54.5482 33.4907 54.269 33.1131 53.9727L29.3055 50.9847C29.0958 50.8201 28.9122 50.676 28.7549 50.5526C28.5953 50.4104 28.4387 50.2536 28.285 50.0822C28.1638 50.2582 28.0426 50.4343 27.9214 50.6103C27.7979 50.7677 27.6756 50.9344 27.5544 51.1104L26.9093 50.6042L29.4404 47.3788L29.9124 47.7492ZM32.6157 44.8877L33.3884 44.6805L35.6553 54.2644L34.795 54.4536L32.6157 44.8877ZM34.024 42.5099C33.7771 42.8246 33.684 43.1159 33.7448 43.384C33.8034 43.6333 33.9713 43.8837 34.2485 44.1352C34.5153 44.3784 34.8375 44.6482 35.2151 44.9445L38.9979 47.964C39.2077 48.1286 39.3924 48.282 39.552 48.4242C39.7093 48.5477 39.8689 48.6899 40.0308 48.8508C40.152 48.6747 40.2743 48.508 40.3978 48.3507C40.519 48.1746 40.6402 47.9986 40.7614 47.8225L41.4065 48.3288L38.8754 51.5542L38.4034 51.1838C38.6585 50.8586 38.7568 50.5713 38.6983 50.322C38.6292 50.0644 38.4613 49.814 38.1946 49.5708C37.9256 49.3089 37.6023 49.0297 37.2247 48.7334L33.4295 45.7297C33.2197 45.565 33.0361 45.421 32.8788 45.2975C32.7192 45.1553 32.5626 44.9985 32.409 44.8271C32.2877 45.0032 32.1665 45.1792 32.0453 45.3553C31.9219 45.5126 31.7995 45.6793 31.6783 45.8554L31.0332 45.3492L33.552 42.1395L34.024 42.5099ZM29.0192 45.4211C28.5417 46.0295 28.0137 46.454 27.4349 46.6948C26.8457 46.9273 26.3413 46.8789 25.9217 46.5496C25.7329 46.4015 25.6115 46.2214 25.5575 46.0095C25.4929 45.7894 25.5336 45.5756 25.6795 45.3681C25.809 45.1815 25.9527 45.074 26.1107 45.0454C26.2582 45.0086 26.3967 45.0157 26.5263 45.0665C26.6536 45.0986 26.7593 45.1476 26.8432 45.2135C26.9271 45.2793 27.0133 45.3639 27.1017 45.4672C27.1901 45.5705 27.2557 45.6813 27.2985 45.7996C27.4445 45.8294 27.6302 45.7548 27.8555 45.5757C28.0785 45.3779 28.2724 45.1741 28.437 44.9643C28.6016 44.7545 28.7494 44.523 28.8803 44.2698C29.0007 44.0084 29.0332 43.805 28.9777 43.6598C28.8526 43.6464 28.7294 43.609 28.608 43.5477C28.4867 43.4863 28.3841 43.4227 28.3001 43.3569C28.2162 43.291 28.1394 43.2053 28.0697 43.0998C27.9977 42.9755 27.9621 42.8374 27.9627 42.6854C27.9529 42.5251 28.0232 42.3599 28.1736 42.1898C28.3323 42.0093 28.5262 41.9242 28.7554 41.9345C28.9823 41.9261 29.1901 41.996 29.3789 42.1442C29.7985 42.4735 29.9654 42.9519 29.8796 43.5795C29.7834 44.1989 29.4966 44.8127 29.0192 45.4211Z" fill="black"/>
<path d="M45.5152 30.2011C45.0074 29.6004 44.5327 29.2247 44.0912 29.0742C43.641 28.9135 43.2202 28.9113 42.8286 29.0677C42.4285 29.214 42.0392 29.4557 41.6609 29.793L40.5717 30.7661C40.2036 31.0948 40.0214 31.4059 40.0252 31.6995C40.0204 31.9829 40.124 32.2707 40.336 32.5629C40.5481 32.855 40.8047 33.1793 41.106 33.5357L42.9524 35.7198L44.1637 34.6434C44.9831 33.8984 45.733 33.3605 46.4135 33.0296C47.0957 32.6799 47.7217 32.4912 48.2917 32.4632C48.8617 32.4353 49.3816 32.5546 49.8512 32.821C50.3224 33.0686 50.7517 33.4215 51.1391 33.8798C51.69 34.5314 52.0056 35.2249 52.0859 35.9601C52.1576 36.6852 52.0269 37.398 51.6938 38.0986C51.3607 38.7992 50.848 39.4422 50.1556 40.0275L45.6956 43.7977L45.2696 43.2937C45.6479 42.9564 45.8395 42.6461 45.8443 42.3626C45.8405 42.069 45.7232 41.7753 45.4924 41.4816C45.2631 41.1691 44.9892 40.8245 44.6707 40.4477L39.1574 33.9259C38.9853 33.7222 38.8268 33.5244 38.6821 33.3325C38.5287 33.1305 38.3925 32.9488 38.2736 32.7874C38.0989 32.9525 37.9242 33.1177 37.7496 33.2828C37.5749 33.4479 37.4002 33.613 37.2255 33.7782L36.6574 33.1061L43.7444 27.1151L46.0804 29.7234L45.5152 30.2011ZM46.5548 39.9812C46.7872 40.2561 46.9801 40.4946 47.1334 40.6967C47.297 40.8902 47.4245 41.0617 47.5161 41.2113C47.6876 41.0837 47.8897 40.9304 48.1223 40.7512C48.3565 40.5532 48.5703 40.3724 48.7638 40.2089C48.9674 40.0367 49.0998 39.9248 49.1609 39.8732C49.9449 39.2104 50.399 38.4773 50.5231 37.6741C50.6574 36.8622 50.3845 36.0541 49.7045 35.2497C49.1363 34.5776 48.5795 34.1667 48.0338 34.0169C47.4897 33.8483 46.9589 33.8606 46.4412 34.0537C45.9338 34.2383 45.4459 34.5285 44.9775 34.9245C44.672 35.1827 44.3963 35.4245 44.1503 35.6499C43.906 35.8565 43.6702 36.0733 43.443 36.3002L46.5548 39.9812Z" fill="black"/>
<path d="M59.005 39.9861C58.6563 40.208 58.3045 40.3133 57.9497 40.302C57.5948 40.2907 57.3065 40.1107 57.0846 39.762C56.9557 39.5595 56.9051 39.331 56.9328 39.0763C56.9604 38.8217 57.0811 38.6264 57.2948 38.4904C57.5576 38.3074 57.7913 38.2772 57.9958 38.3999C58.2116 38.5155 58.3624 38.6408 58.4483 38.7758C58.4698 38.8095 58.4913 38.8433 58.5127 38.877C58.5414 38.922 58.5644 38.9706 58.5817 39.0227C58.6298 39.0238 58.6988 38.9957 58.7888 38.9384C58.9238 38.8525 59.0343 38.7032 59.1202 38.4905C59.2061 38.2778 59.2429 38.0252 59.2307 37.7328C59.2195 37.3922 59.152 36.9136 59.0283 36.297C58.9159 35.6732 58.7651 34.9394 58.5759 34.0958L52.3577 30.1347C51.6644 29.6909 51.1321 29.3263 50.7609 29.0409C50.401 28.7484 50.1412 28.5265 49.9817 28.3752L49.1932 28.9242L48.7531 28.2324L52.246 26.01L52.5681 26.5162L52.5006 26.5592C52.0496 26.8935 51.9054 27.2381 52.0679 27.593C52.2233 27.9366 52.6605 28.338 53.3794 28.7972L58.0484 31.7764C57.8491 30.8918 57.6456 30.0257 57.4381 29.1779C57.2234 28.3189 57.0123 27.4655 56.8048 26.6177C56.7373 26.313 56.6662 26.0026 56.5916 25.6866C56.5211 25.3522 56.4664 25.0551 56.4275 24.7954C56.3928 24.5172 56.3969 24.325 56.4399 24.2186L55.3185 25.0269L54.8783 24.3351L57.5275 22.6495L57.8496 23.1557C57.5336 23.578 57.3868 24.0428 57.4093 24.55C57.4358 25.0389 57.5248 25.6381 57.6761 26.3478L59.3138 33.5789C59.5776 34.7386 59.7764 35.7341 59.9103 36.5655C60.0514 37.4081 60.0605 38.1056 59.9378 38.6578C59.8222 39.2212 59.5113 39.664 59.005 39.9861Z" fill="black"/>
<path d="M64.2849 34.3056L62.455 30.3924L63.1978 30.045C63.4877 29.9095 63.6982 29.7301 63.8293 29.5068C63.9548 29.2715 63.9951 28.87 63.9504 28.3021C63.9138 27.8777 63.8422 27.4254 63.7355 26.9454C63.6409 26.4598 63.5055 25.9343 63.3295 25.369C63.1478 24.7916 62.9314 24.1715 62.6804 23.5088C62.4294 22.8461 62.138 22.1286 61.8064 21.3564L60.246 22.1744L59.8817 21.3954L67.8894 17.6508L68.1436 18.1943C67.7691 18.3694 67.5546 18.5874 67.5001 18.8485C67.4399 19.0974 67.4767 19.3966 67.6107 19.7461C67.7391 20.0835 67.9049 20.4696 68.1082 20.9044L70.1584 25.2887C70.2593 25.536 70.3489 25.759 70.4272 25.9579C70.4998 26.1447 70.566 26.3493 70.6258 26.5715L72.2406 25.7281L74.1044 29.7139L73.4159 30.0358C72.9528 29.0454 72.483 28.3083 72.0066 27.8246C71.5423 27.3352 71.0081 27.2317 70.4042 27.5141L64.9872 30.0472C64.3954 30.324 64.1235 30.797 64.1716 31.4664C64.2373 32.1421 64.5046 32.9812 64.9734 33.9837L64.2849 34.3056ZM64.8284 29.2825L68.0713 27.7661C68.4457 27.591 68.663 27.379 68.7233 27.13C68.7899 26.8634 68.7591 26.5613 68.6307 26.2239C68.5088 25.8688 68.3462 25.4738 68.1429 25.039L66.1605 20.7996C66.0475 20.5581 65.9487 20.3467 65.8639 20.1655C65.7856 19.9666 65.7106 19.7589 65.6387 19.5422L63.7545 20.4233C63.3801 20.5984 63.1713 20.8285 63.128 21.1137C63.0968 21.3933 63.1446 21.7315 63.2714 22.1285C63.5894 22.966 63.8607 23.7665 64.0852 24.5299C64.3161 25.2756 64.5043 25.9456 64.6498 26.54C64.8017 27.1166 64.8939 27.5813 64.9264 27.9341C64.9491 28.2031 64.9546 28.4508 64.9427 28.6771C64.9251 28.8914 64.887 29.0932 64.8284 29.2825Z" fill="black"/>
<path d="M73.2878 26.2343L73.1069 25.6622C73.5733 25.5008 73.8321 25.2581 73.8835 24.9342C73.9436 24.5935 73.8953 24.1753 73.7385 23.6795L72.0561 18.3592C71.9757 18.1049 71.9054 17.8824 71.8451 17.6917C71.7935 17.4843 71.7526 17.2665 71.7224 17.0383C71.523 17.1154 71.3236 17.1924 71.1242 17.2694C70.9335 17.3297 70.7385 17.3984 70.5391 17.4754L70.2918 16.6936L74.182 15.4635L74.3629 16.0355C73.9815 16.1561 73.7363 16.3316 73.6273 16.5618C73.5311 16.788 73.5124 17.0386 73.5714 17.3137C73.6264 17.576 73.6921 17.8279 73.7684 18.0694L74.3232 19.8238L75.4934 19.4118C76.5151 19.0607 77.3586 18.9199 78.0238 18.9892C78.6977 19.0418 79.2237 19.2461 79.602 19.6019C79.9889 19.941 80.2627 20.3649 80.4235 20.8734C80.6165 21.4836 80.6331 22.0447 80.4734 22.5567C80.3263 23.0646 80.0518 23.5011 79.6498 23.8659C79.2477 24.2308 78.767 24.5016 78.2077 24.6785L73.2878 26.2343ZM75.7865 24.5841C75.9304 24.5526 76.104 24.5047 76.3074 24.4404C76.5236 24.372 76.7206 24.3097 76.8986 24.2534C77.0893 24.1931 77.2164 24.1529 77.28 24.1328C77.8648 23.9479 78.3123 23.6386 78.6227 23.2048C78.9457 22.7671 78.9907 22.1795 78.7575 21.4422C78.5525 20.7938 78.203 20.3519 77.709 20.1166C77.2238 19.8645 76.6506 19.843 75.9896 20.052C75.7099 20.1404 75.4513 20.2292 75.2137 20.3183C74.9849 20.3907 74.7644 20.4674 74.5523 20.5484L75.487 23.5042C75.5634 23.7457 75.6234 23.9575 75.6669 24.1395C75.7232 24.3175 75.7631 24.4657 75.7865 24.5841Z" fill="black"/>
<path d="M92.5443 21.923C91.6578 22.0329 90.8128 21.9361 90.0094 21.6326C89.2175 21.3143 88.5499 20.8059 88.0065 20.1074C87.4747 19.3941 87.1424 18.5015 87.0096 17.4297C86.9243 16.7416 86.9672 16.0578 87.1382 15.3783C87.3093 14.6987 87.5878 14.0731 87.9737 13.5013C88.3712 12.9146 88.8687 12.4297 89.4661 12.0466C90.0635 11.6636 90.746 11.4245 91.5134 11.3294C92.2544 11.2375 92.9101 11.2705 93.4805 11.4282C94.0641 11.5842 94.5311 11.8286 94.8813 12.1614C95.2316 12.4942 95.4338 12.8789 95.4879 13.3156C95.524 13.6067 95.4758 13.8679 95.3432 14.0993C95.209 14.3175 94.9898 14.4454 94.6854 14.4831C94.3563 14.5374 94.1058 14.4677 93.934 14.274C93.7738 14.0654 93.683 13.8752 93.6617 13.7031C93.6453 13.5708 93.6488 13.436 93.6721 13.2988C93.6937 13.1483 93.7567 13.0062 93.861 12.8723C93.7158 12.5679 93.5019 12.3593 93.2192 12.2465C92.9349 12.1205 92.6447 12.0557 92.3487 12.0521C92.0642 12.0336 91.8294 12.0359 91.6441 12.0588C90.7444 12.1703 90.0286 12.6285 89.4969 13.4334C88.9768 14.2234 88.802 15.3064 88.9726 16.6826C89.0825 17.5691 89.319 18.3392 89.6822 18.9928C90.0585 19.6448 90.5294 20.1373 91.0946 20.4703C91.6582 20.7901 92.2775 20.9081 92.9523 20.8245C93.5742 20.7474 94.1491 20.5082 94.6771 20.1069C95.2051 19.7055 95.5984 19.247 95.8569 18.7313L96.4221 19.0643C96.147 19.6627 95.7859 20.1643 95.339 20.569C94.9053 20.972 94.4402 21.285 93.9439 21.5077C93.4607 21.7288 92.9942 21.8672 92.5443 21.923Z" fill="black"/>
<path d="M102.737 21.3187C101.803 21.3115 100.958 21.0916 100.202 20.6591C99.4451 20.2133 98.8431 19.6086 98.3956 18.8451C97.9616 18.0684 97.7484 17.1867 97.756 16.2001C97.7642 15.1468 97.9915 14.2019 98.4379 13.3653C98.8844 12.5287 99.4895 11.8734 100.253 11.3992C101.017 10.9118 101.872 10.6717 102.819 10.679C103.752 10.6862 104.597 10.9194 105.353 11.3786C106.11 11.8245 106.712 12.4291 107.16 13.1926C107.607 13.9561 107.827 14.8245 107.819 15.7978C107.812 16.8244 107.578 17.7626 107.118 18.6124C106.671 19.449 106.066 20.111 105.302 20.5985C104.539 21.0859 103.683 21.326 102.737 21.3187ZM102.903 20.52C103.609 20.5254 104.171 20.3297 104.587 19.933C105.004 19.5362 105.301 19.0184 105.479 18.3798C105.671 17.7413 105.77 17.0687 105.775 16.362C105.78 15.762 105.724 15.1749 105.609 14.6007C105.506 14.0132 105.337 13.4852 105.101 13.0167C104.865 12.5349 104.554 12.1525 104.17 11.8695C103.798 11.5866 103.346 11.4431 102.813 11.439C102.12 11.4336 101.551 11.6293 101.108 12.0259C100.665 12.4224 100.335 12.9399 100.116 13.5782C99.9114 14.2167 99.8061 14.9026 99.8004 15.6359C99.7941 16.4625 99.9013 17.25 100.122 17.9984C100.343 18.7335 100.685 19.3361 101.148 19.8064C101.611 20.2767 102.196 20.5145 102.903 20.52Z" fill="black"/>
<path d="M113.74 22.0704C112.895 21.9525 112.154 21.6202 111.517 21.0735C110.894 20.5155 110.442 19.7523 110.16 18.784C109.88 17.8025 109.837 16.6119 110.033 15.2121C110.195 14.05 110.466 12.9772 110.845 11.9935C111.238 11.0117 111.75 10.188 112.382 9.52219C113.028 8.84505 113.81 8.40224 114.728 8.19375C115.076 8.10778 115.426 8.06234 115.777 8.05744C116.129 8.03933 116.48 8.03443 116.829 8.04273C117.193 8.03968 117.553 8.01589 117.909 7.97137C118.267 7.91365 118.54 7.83735 118.729 7.74246C118.93 7.64941 119.104 7.46501 119.25 7.18923L119.913 7.50389C119.762 7.91355 119.618 8.2638 119.484 8.55462C119.349 8.84544 119.161 9.08175 118.92 9.26354C118.693 9.44718 118.337 9.58598 117.852 9.67994C117.479 9.74902 117.103 9.79077 116.724 9.80519C116.345 9.81961 115.98 9.82927 115.63 9.83417C115.281 9.82587 114.942 9.84582 114.612 9.89402C113.566 10.0577 112.75 10.5496 112.164 11.3699C111.594 12.1787 111.236 13.1519 111.09 14.2894L111.229 14.3088C111.641 13.5721 112.19 13.0159 112.875 12.6404C113.574 12.2667 114.405 12.1471 115.369 12.2816C116.201 12.3977 116.922 12.6801 117.533 13.1288C118.145 13.5643 118.595 14.1521 118.882 14.8923C119.184 15.621 119.266 16.4806 119.128 17.471C118.98 18.5274 118.64 19.4223 118.107 20.1557C117.587 20.8908 116.94 21.4266 116.166 21.7628C115.407 22.0877 114.598 22.1902 113.74 22.0704ZM113.924 21.3288C114.571 21.4191 115.112 21.3061 115.547 20.9898C115.996 20.6622 116.349 20.2066 116.606 19.6231C116.862 19.0396 117.037 18.4177 117.129 17.7575C117.23 17.0312 117.229 16.3175 117.125 15.6163C117.034 14.9171 116.808 14.3201 116.446 13.8253C116.097 13.3324 115.586 13.0389 114.913 12.9449C114.319 12.862 113.805 12.9721 113.372 13.2752C112.94 13.5783 112.584 14.0065 112.305 14.5599C112.04 15.1019 111.862 15.7031 111.77 16.3633C111.637 17.3141 111.629 18.1476 111.744 18.8638C111.862 19.5667 112.099 20.1316 112.457 20.5585C112.828 20.9873 113.317 21.244 113.924 21.3288Z" fill="black"/>
<path d="M123.808 24.1424C122.908 23.8949 122.148 23.4646 121.529 22.8517C120.913 22.2259 120.487 21.4864 120.251 20.6334C120.032 19.7711 120.053 18.8643 120.315 17.9129C120.594 16.8973 121.058 16.0429 121.705 15.3497C122.352 14.6565 123.105 14.1792 123.965 13.918C124.829 13.6439 125.717 13.6324 126.63 13.8834C127.53 14.131 128.286 14.5741 128.899 15.2127C129.515 15.8386 129.941 16.578 130.176 17.431C130.412 18.284 130.4 19.1797 130.142 20.1182C129.87 21.1081 129.402 21.9543 128.739 22.6569C128.092 23.3501 127.336 23.8338 126.473 24.1079C125.609 24.382 124.721 24.3935 123.808 24.1424ZM124.174 23.4135C124.856 23.6009 125.449 23.5566 125.953 23.2805C126.458 23.0045 126.879 22.5809 127.216 22.0098C127.565 21.4422 127.834 20.8178 128.021 20.1364C128.181 19.5579 128.278 18.9763 128.315 18.3917C128.367 17.7977 128.34 17.244 128.232 16.7304C128.128 16.2039 127.927 15.7544 127.628 15.3819C127.343 15.0129 126.943 14.7577 126.428 14.6162C125.76 14.4323 125.16 14.4749 124.63 14.7439C124.1 15.0128 123.647 15.4276 123.271 15.9881C122.909 16.5521 122.63 17.1877 122.436 17.8947C122.217 18.6918 122.117 19.4804 122.138 20.2604C122.162 21.0276 122.337 21.698 122.663 22.2718C122.989 22.8455 123.493 23.2261 124.174 23.4135Z" fill="black"/>
<path d="M137.372 18.5152C136.994 18.3499 136.688 18.3331 136.456 18.4646C136.23 18.584 136.029 18.8094 135.856 19.1409C135.687 19.4602 135.501 19.8372 135.297 20.2718L133.343 24.7001C133.237 24.9445 133.135 25.1618 133.037 25.3521C132.957 25.5354 132.854 25.7229 132.726 25.9147C132.927 25.9878 133.119 26.0643 133.303 26.1442C133.503 26.2173 133.704 26.2904 133.905 26.3635L133.577 27.1151L129.838 25.4837L130.078 24.9338C130.456 25.0991 130.759 25.122 130.986 25.0027C131.218 24.8711 131.418 24.6457 131.586 24.3264C131.772 24.0002 131.961 23.6171 132.153 23.1771L134.088 18.7408C134.195 18.4964 134.288 18.2826 134.368 18.0992C134.466 17.909 134.578 17.718 134.705 17.5263C134.505 17.4532 134.304 17.3801 134.103 17.307C133.919 17.2271 133.727 17.1506 133.526 17.0775L133.854 16.3259L137.612 17.9652L137.372 18.5152ZM140.822 20.4125L141.216 21.1084L132.51 25.7111L132.11 24.9259L140.822 20.4125ZM143.477 21.1781C143.11 21.0182 142.805 21.0013 142.561 21.1275C142.334 21.2469 142.134 21.4723 141.96 21.8039C141.792 22.1232 141.612 22.5028 141.42 22.9428L139.448 27.363C139.341 27.6075 139.239 27.8248 139.142 28.015C139.062 28.1983 138.964 28.3885 138.849 28.5856C139.05 28.6587 139.242 28.7352 139.425 28.8152C139.626 28.8882 139.827 28.9613 140.028 29.0344L139.7 29.786L135.942 28.1467L136.182 27.5967C136.561 27.762 136.864 27.7849 137.09 27.6656C137.322 27.534 137.522 27.3086 137.691 26.9893C137.877 26.6631 138.066 26.28 138.258 25.8401L140.211 21.4118C140.318 21.1674 140.411 20.9535 140.491 20.7702C140.588 20.58 140.701 20.389 140.828 20.1972C140.627 20.1241 140.426 20.0511 140.226 19.978C140.042 19.898 139.85 19.8215 139.649 19.7484L139.977 18.9968L143.717 20.6281L143.477 21.1781ZM139.401 17.0655C138.693 16.7563 138.149 16.3518 137.77 15.8522C137.397 15.3403 137.317 14.8399 137.531 14.3511C137.627 14.1311 137.77 13.9683 137.962 13.8627C138.159 13.745 138.376 13.7306 138.613 13.8197C138.827 13.8981 138.967 14.0102 139.034 14.1559C139.107 14.2894 139.135 14.4253 139.118 14.5635C139.119 14.6948 139.098 14.8094 139.055 14.9071C139.013 15.0049 138.953 15.1096 138.875 15.2211C138.797 15.3327 138.706 15.424 138.603 15.4951C138.61 15.644 138.729 15.8049 138.959 15.978C139.207 16.1442 139.453 16.2806 139.697 16.3872C139.942 16.4938 140.203 16.5787 140.481 16.6417C140.764 16.6926 140.969 16.6729 141.096 16.5827C141.077 16.4583 141.082 16.3296 141.111 16.1967C141.14 16.0639 141.176 15.9485 141.219 15.8508C141.261 15.753 141.325 15.6571 141.41 15.5631C141.512 15.4622 141.637 15.393 141.784 15.3554C141.936 15.3056 142.114 15.3322 142.316 15.435C142.531 15.5432 142.662 15.7095 142.71 15.9339C142.775 16.1514 142.759 16.3702 142.664 16.5902C142.45 17.079 142.029 17.3608 141.4 17.4355C140.776 17.498 140.11 17.3747 139.401 17.0655Z" fill="black"/>
<path d="M158.018 29.0667C158.471 28.4238 158.715 27.8698 158.75 27.4046C158.792 26.9285 158.688 26.5207 158.438 26.1812C158.195 25.8308 157.863 25.515 157.442 25.2339L156.225 24.4251C155.815 24.1517 155.468 24.0537 155.184 24.1314C154.909 24.1981 154.657 24.3709 154.427 24.6497C154.198 24.9286 153.949 25.2586 153.68 25.64L152.032 27.9772L153.378 28.8782C154.306 29.4834 155.015 30.0735 155.507 30.6487C156.017 31.2207 156.358 31.779 156.528 32.3236C156.699 32.8682 156.715 33.4013 156.575 33.9229C156.454 34.4414 156.221 34.9457 155.875 35.436C155.383 36.1334 154.792 36.6135 154.1 36.8765C153.417 37.1286 152.694 37.1817 151.932 37.0359C151.17 36.8901 150.419 36.556 149.678 36.0334L144.906 32.6674L145.286 32.1281C145.708 32.4092 146.056 32.5164 146.332 32.4496C146.615 32.372 146.87 32.1845 147.096 31.8871C147.34 31.5865 147.605 31.2346 147.889 30.8314L152.811 23.8526C152.965 23.6347 153.116 23.4315 153.266 23.2431C153.423 23.0437 153.564 22.8662 153.69 22.7104C153.486 22.583 153.283 22.4556 153.079 22.3281C152.875 22.2007 152.671 22.0733 152.467 21.9459L152.975 21.2267L160.558 26.5754L158.623 29.4932L158.018 29.0667ZM148.815 32.5371C148.608 32.8313 148.426 33.078 148.269 33.2774C148.123 33.4844 147.989 33.6511 147.867 33.7773C148.034 33.9112 148.233 34.0681 148.465 34.2481C148.716 34.4248 148.945 34.5862 149.152 34.7322C149.37 34.8859 149.511 34.9858 149.577 35.0319C150.416 35.6237 151.239 35.8784 152.048 35.796C152.867 35.7214 153.581 35.2537 154.188 34.3929C154.695 33.6738 154.952 33.0313 154.96 32.4655C154.986 31.8965 154.84 31.3859 154.523 30.9336C154.217 30.4891 153.813 30.09 153.311 29.7365C152.985 29.506 152.681 29.3001 152.401 29.1189C152.14 28.9344 151.87 28.7609 151.593 28.5982L148.815 32.5371Z" fill="black"/>
<path d="M151.951 44.5929C151.648 44.3114 151.458 43.9976 151.379 43.6514C151.3 43.3052 151.402 42.9807 151.683 42.678C151.847 42.5023 152.055 42.3956 152.308 42.3581C152.562 42.3206 152.781 42.3881 152.967 42.5606C153.21 42.7688 153.298 42.9873 153.231 43.2161C153.174 43.4541 153.091 43.6316 152.982 43.7488C152.954 43.7781 152.927 43.8074 152.9 43.8367C152.864 43.8757 152.822 43.9102 152.776 43.9402C152.787 43.987 152.832 44.0467 152.91 44.1193C153.027 44.2283 153.2 44.2975 153.427 44.327C153.655 44.3564 153.908 44.3283 154.188 44.2427C154.515 44.1459 154.961 43.9599 155.527 43.6846C156.102 43.4184 156.774 43.0873 157.542 42.6915L159.806 35.6749C160.061 34.8921 160.279 34.285 160.462 33.8539C160.654 33.4318 160.803 33.1245 160.909 32.9319L160.179 32.3075L160.738 31.707L163.769 34.5261L163.361 34.9655L163.302 34.911C162.865 34.559 162.495 34.5064 162.193 34.7533C161.899 34.9903 161.621 35.5146 161.358 36.3261L159.654 41.5958C160.459 41.1797 161.246 40.7643 162.014 40.3496C162.791 39.9251 163.564 39.5055 164.332 39.0908C164.609 38.9486 164.892 38.8015 165.179 38.6496C165.485 38.4969 165.758 38.3691 166 38.2659C166.26 38.1621 166.447 38.1176 166.561 38.1323L165.496 37.2512L166.054 36.6507L168.354 38.7889L167.945 39.2283C167.457 39.029 166.97 39.0043 166.485 39.154C166.019 39.303 165.461 39.5403 164.813 39.8658L158.229 43.275C157.173 43.8228 156.26 44.2664 155.489 44.6058C154.709 44.9549 154.037 45.1397 153.472 45.1603C152.897 45.1906 152.39 45.0015 151.951 44.5929Z" fill="black"/>
<path d="M159.054 48.5822L162.383 45.8295L162.906 46.4615C163.11 46.7081 163.336 46.8669 163.585 46.9378C163.845 47.0003 164.243 46.9387 164.782 46.753C165.184 46.6111 165.603 46.4284 166.041 46.2047C166.488 45.9913 166.962 45.7285 167.466 45.4164C167.979 45.0957 168.525 44.7308 169.104 44.3216C169.682 43.9124 170.304 43.4504 170.968 42.9357L169.785 41.6303L170.448 41.0823L176.081 47.8952L175.618 48.2775C175.355 47.959 175.09 47.806 174.824 47.8186C174.568 47.8228 174.287 47.9335 173.982 48.1508C173.688 48.3597 173.356 48.617 172.986 48.9229L169.256 52.007C169.042 52.1666 168.848 52.3093 168.675 52.435C168.513 52.5521 168.331 52.6675 168.131 52.7811L169.352 54.1328L165.961 56.9365L165.477 56.3508C166.32 55.6541 166.915 55.0145 167.264 54.432C167.622 53.8598 167.588 53.3168 167.163 52.803L163.353 48.1943C162.936 47.6907 162.41 47.5462 161.774 47.7605C161.137 47.9936 160.391 48.4628 159.538 49.168L159.054 48.5822ZM164.053 47.8487L166.334 50.6078C166.598 50.9263 166.857 51.0835 167.113 51.0794C167.388 51.0771 167.673 50.9715 167.967 50.7626C168.281 50.5555 168.622 50.2991 168.992 49.9932L172.599 47.0111C172.804 46.8412 172.984 46.6925 173.138 46.565C173.311 46.4394 173.494 46.3146 173.685 46.1907L172.36 44.5877C172.096 44.2691 171.821 44.1247 171.534 44.1543C171.256 44.1942 170.94 44.3253 170.588 44.5475C169.857 45.0654 169.15 45.5287 168.467 45.9375C167.803 46.3481 167.202 46.6983 166.663 46.9881C166.143 47.2798 165.716 47.4855 165.383 47.6055C165.128 47.6949 164.89 47.7623 164.668 47.8075C164.456 47.8443 164.251 47.858 164.053 47.8487Z" fill="black"/>
<path d="M168.966 55.0887L169.473 54.7685C169.748 55.1785 170.048 55.3673 170.374 55.3348C170.719 55.3064 171.111 55.1535 171.551 54.8759L176.27 51.8978C176.495 51.7555 176.693 51.6309 176.862 51.5242C177.049 51.4216 177.25 51.3267 177.463 51.2396C177.338 51.0663 177.212 50.893 177.087 50.7197C176.981 50.5506 176.865 50.3794 176.739 50.2061L177.433 49.7684L179.61 53.2187L179.103 53.539C178.89 53.2007 178.658 53.0081 178.407 52.9611C178.164 52.9255 177.917 52.9711 177.666 53.098C177.426 53.2177 177.199 53.3452 176.985 53.4804L175.429 54.4625L176.125 55.4897C176.723 56.3888 177.074 57.1689 177.176 57.8299C177.296 58.495 177.232 59.0557 176.984 59.5119C176.754 59.9722 176.414 60.3447 175.963 60.6294C175.421 60.971 174.883 61.1295 174.347 61.105C173.819 61.0918 173.327 60.9371 172.872 60.6408C172.417 60.3446 172.033 59.9484 171.72 59.4523L168.966 55.0887ZM171.196 57.0866C171.263 57.2177 171.354 57.3735 171.467 57.5539C171.588 57.7456 171.699 57.9203 171.798 58.0782C171.905 58.2473 171.976 58.3601 172.012 58.4165C172.339 58.9351 172.752 59.2895 173.25 59.4795C173.756 59.6808 174.336 59.5751 174.989 59.1624C175.565 58.7994 175.903 58.3492 176.005 57.8117C176.126 57.2783 176.001 56.7185 175.631 56.1322C175.475 55.8841 175.323 55.6565 175.177 55.4494C175.049 55.2464 174.918 55.0527 174.786 54.8681L172.165 56.5226C171.95 56.6578 171.761 56.7696 171.596 56.858C171.438 56.9576 171.305 57.0338 171.196 57.0866Z" fill="black"/>
<path d="M177.954 72.4881C177.622 71.659 177.5 70.8173 177.588 69.963C177.694 69.1162 178.015 68.3409 178.552 67.6372C179.105 66.9409 179.884 66.3918 180.886 65.9897C181.53 65.7316 182.202 65.5985 182.902 65.5904C183.603 65.5824 184.279 65.6919 184.93 65.9191C185.599 66.1536 186.195 66.5109 186.718 66.9907C187.241 67.4705 187.646 68.0693 187.934 68.7871C188.212 69.4801 188.347 70.1225 188.341 70.7142C188.339 71.3183 188.222 71.8322 187.989 72.2558C187.757 72.6794 187.437 72.9731 187.028 73.1369C186.756 73.2461 186.491 73.2662 186.233 73.1971C185.988 73.123 185.809 72.9437 185.694 72.6591C185.558 72.3547 185.561 72.0947 185.705 71.8792C185.866 71.671 186.026 71.5347 186.187 71.4702C186.311 71.4205 186.442 71.3895 186.581 71.3769C186.732 71.3595 186.885 71.3841 187.041 71.4508C187.299 71.2327 187.446 70.9726 187.483 70.6705C187.532 70.3634 187.52 70.0663 187.448 69.7791C187.394 69.4994 187.332 69.2729 187.262 69.0997C186.924 68.2582 186.299 67.6831 185.385 67.3745C184.488 67.0733 183.396 67.1808 182.109 67.697C181.28 68.0295 180.596 68.4548 180.057 68.9728C179.523 69.5031 179.167 70.0841 178.989 70.7156C178.824 71.3422 178.868 71.971 179.121 72.6022C179.354 73.1838 179.732 73.6786 180.255 74.0867C180.778 74.4947 181.321 74.7579 181.886 74.8762L181.708 75.5077C181.06 75.3944 180.482 75.1734 179.977 74.8446C179.477 74.5281 179.055 74.1584 178.713 73.7353C178.376 73.3246 178.123 72.9089 177.954 72.4881Z" fill="black"/>
<path d="M181.13 82.2244C180.899 81.32 180.897 80.4468 181.123 79.605C181.361 78.7599 181.793 78.0239 182.418 77.397C183.058 76.7797 183.857 76.3493 184.813 76.1057C185.834 75.8456 186.805 75.8251 187.728 76.0441C188.651 76.2631 189.438 76.6816 190.091 77.2996C190.757 77.9143 191.207 78.6803 191.44 79.5977C191.671 80.5021 191.66 81.3785 191.408 82.2269C191.17 83.072 190.738 83.808 190.113 84.435C189.489 85.0619 188.705 85.4955 187.762 85.7358C186.767 85.9893 185.8 86.0017 184.861 85.773C183.939 85.554 183.144 85.1372 182.479 84.5225C181.813 83.9078 181.363 83.1418 181.13 82.2244ZM181.944 82.182C182.119 82.8668 182.451 83.36 182.941 83.6618C183.43 83.9636 184.006 84.1195 184.669 84.1295C185.336 84.1524 186.011 84.0766 186.696 83.9021C187.278 83.754 187.831 83.551 188.357 83.2932C188.899 83.045 189.367 82.747 189.76 82.3992C190.166 82.0482 190.457 81.6507 190.633 81.2069C190.812 80.776 190.835 80.3021 190.704 79.7853C190.533 79.1134 190.199 78.6137 189.703 78.286C189.206 77.9584 188.622 77.7702 187.949 77.7215C187.279 77.6857 186.589 77.7583 185.879 77.9393C185.078 78.1434 184.343 78.4475 183.676 78.8514C183.021 79.2521 182.525 79.7362 182.188 80.3036C181.851 80.8711 181.77 81.4972 181.944 82.182Z" fill="black"/>
<path d="M183.111 92.66C183.009 91.8127 183.141 91.0113 183.507 90.2556C183.888 89.5116 184.51 88.8796 185.374 88.3595C186.252 87.8379 187.392 87.4928 188.795 87.3244C189.96 87.1845 191.067 87.1726 192.115 87.2885C193.164 87.4177 194.091 87.7025 194.896 88.143C195.716 88.5952 196.344 89.2383 196.78 90.0723C196.952 90.3874 197.085 90.7138 197.179 91.0517C197.287 91.3879 197.381 91.7258 197.462 92.0652C197.558 92.4163 197.673 92.7583 197.807 93.0914C197.954 93.4229 198.098 93.6675 198.237 93.8253C198.379 93.9964 198.602 94.1173 198.905 94.1883L198.77 94.9095C198.336 94.8677 197.961 94.8187 197.645 94.7626C197.329 94.7065 197.053 94.5853 196.816 94.3989C196.58 94.2257 196.355 93.917 196.14 93.4727C195.978 93.1296 195.842 92.7767 195.731 92.414C195.621 92.0512 195.518 91.701 195.424 91.3631C195.343 91.0237 195.237 90.7007 195.106 90.3941C194.681 89.4245 193.997 88.7613 193.054 88.4044C192.127 88.0592 191.094 87.9616 189.957 88.1115L189.974 88.2505C190.792 88.4612 191.47 88.8499 192.008 89.4164C192.547 89.9963 192.875 90.7694 192.991 91.7358C193.091 92.5698 193.002 93.3392 192.724 94.044C192.459 94.7472 192.006 95.3321 191.364 95.7987C190.736 96.2769 189.926 96.5756 188.933 96.6948C187.874 96.8219 186.922 96.7213 186.077 96.3931C185.233 96.078 184.55 95.5893 184.027 94.9269C183.52 94.2761 183.214 93.5205 183.111 92.66ZM183.875 92.6488C183.953 93.2975 184.2 93.7915 184.617 94.1309C185.048 94.482 185.579 94.707 186.209 94.806C186.838 94.905 187.484 94.9148 188.146 94.8353C188.874 94.7479 189.564 94.5644 190.215 94.2848C190.868 94.0184 191.387 93.6472 191.773 93.1711C192.161 92.7083 192.314 92.1393 192.233 91.4641C192.162 90.8684 191.924 90.4 191.521 90.059C191.117 89.718 190.612 89.4832 190.006 89.3546C189.414 89.2376 188.788 89.2188 188.126 89.2983C187.173 89.4127 186.365 89.6171 185.702 89.9116C185.052 90.2044 184.566 90.5783 184.245 91.0332C183.925 91.5013 183.802 92.0399 183.875 92.6488Z" fill="black"/>
</svg>
