<svg width="13" height="16" viewBox="0 0 13 16" fill="none" xmlns="http://www.w3.org/2000/svg">
<path d="M2.4375 5.7H2.5375V5.6V4C2.5375 1.85108 4.3137 0.1 6.5 0.1C8.6863 0.1 10.4625 1.85108 10.4625 4V5.6V5.7H10.5625H11.375C12.2174 5.7 12.9 6.37428 12.9 7.2V14.4C12.9 15.2257 12.2174 15.9 11.375 15.9H1.625C0.782574 15.9 0.1 15.2257 0.1 14.4V7.2C0.1 6.37428 0.782574 5.7 1.625 5.7H2.4375ZM8.9375 5.7H9.0375V5.6V4C9.0375 2.62012 7.89764 1.5 6.5 1.5C5.10236 1.5 3.9625 2.62012 3.9625 4V5.6V5.7H4.0625H8.9375ZM11.3766 14.5H11.4766L11.4766 14.4L11.475 7.19998L11.475 7.1H11.375H1.625H1.525V7.2V14.4V14.5H1.625H5.6875H5.7875V14.4V12.5776V12.5197L5.7373 12.4909C5.28235 12.2296 4.975 11.7501 4.975 11.2C4.975 10.3743 5.65757 9.7 6.5 9.7C7.34243 9.7 8.025 10.3743 8.025 11.2C8.025 11.7509 7.71767 12.2296 7.2627 12.4909L7.2125 12.5197V12.5776V14.4V14.5H7.3125H11.3766Z" fill="#8C8C96" stroke="white" stroke-width="0.2"/>
</svg>
