<svg width="436" height="43" viewBox="0 0 436 43" fill="none" xmlns="http://www.w3.org/2000/svg">
<path d="M11.312 36.56C11.312 37.9253 11.4613 38.928 11.76 39.568C12.1013 40.1653 12.72 40.592 13.616 40.848C14.5547 41.104 16.0053 41.232 17.968 41.232C18.096 41.232 18.16 41.36 18.16 41.616C18.16 41.872 18.096 42 17.968 42C16.2187 42 14.8533 41.9787 13.872 41.936L8.304 41.872L3.696 41.936C2.88533 41.9787 1.776 42 0.368 42C0.24 42 0.176 41.872 0.176 41.616C0.176 41.36 0.24 41.232 0.368 41.232C1.81867 41.232 2.864 41.1253 3.504 40.912C4.144 40.6987 4.57067 40.2933 4.784 39.696C5.04 39.0987 5.168 38.1387 5.168 36.816V7.184C5.168 5.904 5.04 4.96533 4.784 4.368C4.57067 3.77066 4.12267 3.36533 3.44 3.152C2.8 2.896 1.776 2.768 0.368 2.768C0.24 2.768 0.176 2.64 0.176 2.384C0.176 2.128 0.24 2 0.368 2L3.696 2.064C5.57333 2.14933 7.088 2.192 8.24 2.192C9.22133 2.192 10.416 2.128 11.824 2C12.336 1.95733 13.0187 1.91466 13.872 1.872C14.768 1.82933 15.8133 1.808 17.008 1.808C21.232 1.808 24.56 2.704 26.992 4.496C29.4667 6.288 30.704 9.04 30.704 12.752C30.704 15.44 30 17.7227 28.592 19.6C27.2267 21.4773 25.456 22.8853 23.28 23.824C21.1467 24.7627 18.9493 25.232 16.688 25.232C15.4933 25.232 14.4907 25.1253 13.68 24.912C13.552 24.912 13.488 24.8053 13.488 24.592C13.488 24.464 13.5093 24.336 13.552 24.208C13.6373 24.08 13.7227 24.0373 13.808 24.08C14.4907 24.2507 15.2373 24.336 16.048 24.336C18.2667 24.336 20.144 23.4187 21.68 21.584C23.216 19.7493 23.984 17.1253 23.984 13.712C23.984 10.3413 23.1947 7.73867 21.616 5.904C20.0373 4.02666 17.8613 3.088 15.088 3.088C14.064 3.088 13.2747 3.19466 12.72 3.408C12.208 3.62133 11.8453 4.02666 11.632 4.624C11.4187 5.17866 11.312 6.07466 11.312 7.312V36.56ZM79.8435 41.232C79.9715 41.232 80.0355 41.36 80.0355 41.616C80.0355 41.872 79.9715 42 79.8435 42C78.3928 42 77.2195 41.9787 76.3235 41.936L71.6515 41.872L66.2115 41.936C65.4435 41.9787 64.4195 42 63.1395 42C63.0115 42 62.9475 41.872 62.9475 41.616C62.9475 41.36 63.0115 41.232 63.1395 41.232C64.7608 41.232 65.9342 41.1253 66.6595 40.912C67.3848 40.6987 67.8755 40.2933 68.1315 39.696C68.3875 39.0987 68.5155 38.1387 68.5155 36.816V22.032H46.5635V36.816C46.5635 38.096 46.6915 39.056 46.9475 39.696C47.2035 40.2933 47.6942 40.6987 48.4195 40.912C49.1875 41.1253 50.3822 41.232 52.0035 41.232C52.0888 41.232 52.1315 41.36 52.1315 41.616C52.1315 41.872 52.0888 42 52.0035 42C50.5528 42 49.4222 41.9787 48.6115 41.936L43.2995 41.872L38.6275 41.936C37.8168 41.9787 36.6862 42 35.2355 42C35.1502 42 35.1075 41.872 35.1075 41.616C35.1075 41.36 35.1502 41.232 35.2355 41.232C36.7715 41.232 37.9022 41.1253 38.6275 40.912C39.3528 40.6987 39.8435 40.2933 40.0995 39.696C40.3555 39.056 40.4835 38.096 40.4835 36.816V7.184C40.4835 5.904 40.3555 4.96533 40.0995 4.368C39.8435 3.77066 39.3528 3.36533 38.6275 3.152C37.9022 2.896 36.7928 2.768 35.2995 2.768C35.2142 2.768 35.1715 2.64 35.1715 2.384C35.1715 2.128 35.2142 2 35.2995 2L38.6915 2.064C40.6542 2.14933 42.1902 2.192 43.2995 2.192C44.7928 2.192 46.5635 2.14933 48.6115 2.064L52.0035 2C52.0888 2 52.1315 2.128 52.1315 2.384C52.1315 2.64 52.0888 2.768 52.0035 2.768C50.4248 2.768 49.2515 2.896 48.4835 3.152C47.7582 3.408 47.2462 3.856 46.9475 4.496C46.6915 5.09333 46.5635 6.032 46.5635 7.312V20.368H68.5155V7.312C68.5155 6.032 68.3875 5.09333 68.1315 4.496C67.8755 3.856 67.3635 3.408 66.5955 3.152C65.8702 2.896 64.7182 2.768 63.1395 2.768C63.0115 2.768 62.9475 2.64 62.9475 2.384C62.9475 2.128 63.0115 2 63.1395 2L66.2115 2.064C68.2595 2.14933 70.0728 2.192 71.6515 2.192C72.8035 2.192 74.3608 2.14933 76.3235 2.064L79.8435 2C79.9715 2 80.0355 2.128 80.0355 2.384C80.0355 2.64 79.9715 2.768 79.8435 2.768C78.3075 2.768 77.1768 2.896 76.4515 3.152C75.7688 3.36533 75.2995 3.77066 75.0435 4.368C74.7875 4.96533 74.6595 5.904 74.6595 7.184V36.816C74.6595 38.096 74.7875 39.056 75.0435 39.696C75.2995 40.2933 75.7688 40.6987 76.4515 40.912C77.1768 41.1253 78.3075 41.232 79.8435 41.232ZM105.362 42.768C101.394 42.768 97.8522 41.8507 94.7375 40.016C91.6655 38.1387 89.2762 35.6213 87.5695 32.464C85.9055 29.264 85.0735 25.7867 85.0735 22.032C85.0735 17.6373 86.1828 13.8827 88.4015 10.768C90.6202 7.61066 93.4575 5.24266 96.9135 3.664C100.412 2.08533 103.975 1.296 107.602 1.296C111.655 1.296 115.218 2.256 118.29 4.176C121.362 6.05333 123.708 8.54933 125.33 11.664C126.994 14.7787 127.826 18.0853 127.826 21.584C127.826 25.4667 126.802 29.0293 124.754 32.272C122.706 35.5147 119.954 38.0747 116.498 39.952C113.084 41.8293 109.372 42.768 105.362 42.768ZM107.538 41.232C110.098 41.232 112.38 40.5493 114.386 39.184C116.434 37.776 118.034 35.728 119.186 33.04C120.38 30.352 120.978 27.152 120.978 23.44C120.978 19.5147 120.316 15.9947 118.994 12.88C117.714 9.76533 115.858 7.33333 113.426 5.584C111.036 3.83467 108.22 2.96 104.978 2.96C100.839 2.96 97.6175 4.45333 95.3135 7.44C93.0522 10.384 91.9215 14.48 91.9215 19.728C91.9215 23.7813 92.5828 27.4507 93.9055 30.736C95.2708 34.0213 97.1268 36.6027 99.4735 38.48C101.863 40.3147 104.551 41.232 107.538 41.232ZM142.754 3.344C140.151 3.344 137.997 4.15466 136.29 5.776C134.626 7.35466 133.346 9.76533 132.45 13.008C132.45 13.0933 132.322 13.136 132.066 13.136C131.853 13.136 131.746 13.072 131.746 12.944C131.917 11.28 132.109 9.14666 132.322 6.544C132.535 3.89866 132.642 1.91466 132.642 0.591999C132.642 0.378666 132.749 0.271999 132.962 0.271999C133.218 0.271999 133.346 0.378666 133.346 0.591999C133.346 1.53067 134.541 2 136.93 2C140.599 2.128 144.887 2.192 149.794 2.192C152.311 2.192 154.978 2.14933 157.794 2.064L162.146 2C163.767 2 164.941 1.89333 165.666 1.68C166.434 1.46666 166.925 1.04 167.138 0.399998C167.181 0.229331 167.309 0.143997 167.522 0.143997C167.735 0.143997 167.842 0.229331 167.842 0.399998C167.714 1.72267 167.586 3.728 167.458 6.416C167.33 9.104 167.266 11.28 167.266 12.944C167.266 13.072 167.138 13.136 166.882 13.136C166.669 13.136 166.541 13.072 166.498 12.944C166.071 9.65867 165.069 7.248 163.49 5.712C161.911 4.13333 159.778 3.344 157.09 3.344C155.895 3.344 154.999 3.45066 154.402 3.664C153.847 3.87733 153.463 4.26133 153.25 4.816C153.079 5.328 152.994 6.16 152.994 7.312V36.816C152.994 38.1387 153.122 39.0987 153.378 39.696C153.634 40.2933 154.146 40.6987 154.914 40.912C155.682 41.1253 156.898 41.232 158.562 41.232C158.69 41.232 158.754 41.36 158.754 41.616C158.754 41.872 158.69 42 158.562 42C157.069 42 155.895 41.9787 155.042 41.936L149.794 41.872L144.802 41.936C143.906 41.9787 142.669 42 141.09 42C141.005 42 140.962 41.872 140.962 41.616C140.962 41.36 141.005 41.232 141.09 41.232C142.754 41.232 143.97 41.1253 144.738 40.912C145.549 40.6987 146.082 40.2933 146.338 39.696C146.637 39.056 146.786 38.096 146.786 36.816V7.184C146.786 6.07466 146.679 5.264 146.466 4.752C146.253 4.24 145.869 3.87733 145.314 3.664C144.759 3.45066 143.906 3.344 142.754 3.344ZM192.612 42.768C188.644 42.768 185.102 41.8507 181.988 40.016C178.916 38.1387 176.526 35.6213 174.82 32.464C173.156 29.264 172.324 25.7867 172.324 22.032C172.324 17.6373 173.433 13.8827 175.652 10.768C177.87 7.61066 180.708 5.24266 184.164 3.664C187.662 2.08533 191.225 1.296 194.852 1.296C198.905 1.296 202.468 2.256 205.54 4.176C208.612 6.05333 210.958 8.54933 212.58 11.664C214.244 14.7787 215.076 18.0853 215.076 21.584C215.076 25.4667 214.052 29.0293 212.004 32.272C209.956 35.5147 207.204 38.0747 203.748 39.952C200.334 41.8293 196.622 42.768 192.612 42.768ZM194.788 41.232C197.348 41.232 199.63 40.5493 201.636 39.184C203.684 37.776 205.284 35.728 206.436 33.04C207.63 30.352 208.228 27.152 208.228 23.44C208.228 19.5147 207.566 15.9947 206.244 12.88C204.964 9.76533 203.108 7.33333 200.676 5.584C198.286 3.83467 195.47 2.96 192.228 2.96C188.089 2.96 184.868 4.45333 182.564 7.44C180.302 10.384 179.172 14.48 179.172 19.728C179.172 23.7813 179.833 27.4507 181.156 30.736C182.521 34.0213 184.377 36.6027 186.724 38.48C189.113 40.3147 191.801 41.232 194.788 41.232ZM244.3 42.768C239.606 42.768 235.51 41.872 232.012 40.08C228.556 38.288 225.91 35.856 224.076 32.784C222.241 29.6693 221.324 26.2133 221.324 22.416C221.324 18.32 222.369 14.672 224.46 11.472C226.593 8.22933 229.494 5.73333 233.164 3.984C236.876 2.192 241.036 1.296 245.644 1.296C247.649 1.296 249.654 1.46666 251.66 1.808C253.665 2.14933 255.286 2.61867 256.524 3.216C256.865 3.38666 257.078 3.55733 257.164 3.728C257.292 3.89866 257.377 4.21866 257.42 4.688L258.188 13.008C258.188 13.136 258.081 13.2213 257.868 13.264C257.654 13.3067 257.505 13.2427 257.42 13.072C256.14 9.872 254.22 7.376 251.66 5.584C249.1 3.792 246.092 2.896 242.636 2.896C237.942 2.896 234.337 4.432 231.82 7.504C229.302 10.5333 228.044 14.7147 228.044 20.048C228.044 24.2293 228.812 27.9627 230.348 31.248C231.884 34.5333 233.996 37.0933 236.684 38.928C239.414 40.7627 242.465 41.68 245.836 41.68C247.713 41.68 249.164 41.488 250.188 41.104C251.212 40.72 251.958 39.9733 252.428 38.864C252.94 37.7547 253.196 36.112 253.196 33.936C253.196 31.7173 253.068 30.1813 252.812 29.328C252.556 28.432 251.98 27.8347 251.083 27.536C250.23 27.2373 248.716 27.088 246.54 27.088C246.284 27.088 246.156 26.9173 246.156 26.576C246.156 26.448 246.177 26.3413 246.22 26.256C246.305 26.128 246.39 26.064 246.476 26.064C250.017 26.2773 252.854 26.384 254.988 26.384C257.121 26.384 259.34 26.32 261.644 26.192C261.729 26.192 261.793 26.256 261.836 26.384C261.921 26.4693 261.964 26.5547 261.964 26.64C261.964 26.9387 261.857 27.088 261.644 27.088C260.79 27.0453 260.193 27.1947 259.852 27.536C259.51 27.8347 259.276 28.4747 259.148 29.456C259.062 30.4373 259.02 32.144 259.02 34.576C259.02 36.496 259.084 37.8613 259.212 38.672C259.382 39.4827 259.468 39.9947 259.468 40.208C259.468 40.464 259.404 40.6347 259.276 40.72C259.19 40.7627 258.998 40.848 258.7 40.976C253.324 42.1707 248.524 42.768 244.3 42.768ZM308.799 41.232C308.927 41.232 308.991 41.36 308.991 41.616C308.991 41.872 308.927 42 308.799 42H298.495C297.513 42 295.679 40.2293 292.991 36.688C290.345 33.104 287.103 28.112 283.263 21.712C282.58 21.84 281.876 21.904 281.151 21.904C279.572 21.904 278.463 21.8827 277.823 21.84V36.816C277.823 38.1387 277.929 39.0987 278.143 39.696C278.399 40.2933 278.847 40.6987 279.487 40.912C280.169 41.1253 281.236 41.232 282.687 41.232C282.772 41.232 282.815 41.36 282.815 41.616C282.815 41.872 282.772 42 282.687 42C281.279 42 280.191 41.9787 279.423 41.936L274.687 41.872L270.079 41.936C269.268 41.9787 268.159 42 266.751 42C266.623 42 266.559 41.872 266.559 41.616C266.559 41.36 266.623 41.232 266.751 41.232C268.201 41.232 269.247 41.1253 269.887 40.912C270.569 40.6987 271.039 40.2933 271.295 39.696C271.551 39.056 271.679 38.096 271.679 36.816V7.184C271.679 5.904 271.551 4.96533 271.295 4.368C271.081 3.77066 270.633 3.36533 269.951 3.152C269.268 2.896 268.223 2.768 266.815 2.768C266.729 2.768 266.687 2.64 266.687 2.384C266.687 2.128 266.729 2 266.815 2L270.143 2.064C272.02 2.14933 273.535 2.192 274.687 2.192C275.967 2.192 277.311 2.128 278.719 2C279.231 1.95733 279.849 1.91466 280.575 1.872C281.3 1.82933 282.089 1.808 282.943 1.808C286.74 1.808 289.663 2.512 291.711 3.92C293.759 5.328 294.783 7.312 294.783 9.872C294.783 11.8773 294.185 13.776 292.991 15.568C291.796 17.36 290.239 18.8107 288.319 19.92C291.817 25.296 294.74 29.52 297.087 32.592C299.476 35.6213 301.588 37.8187 303.423 39.184C305.257 40.5493 307.049 41.232 308.799 41.232ZM277.823 20.048C278.847 20.2187 280.084 20.304 281.535 20.304C284.095 20.304 285.887 19.728 286.911 18.576C287.935 17.424 288.447 15.312 288.447 12.24C288.447 8.784 287.871 6.39467 286.719 5.072C285.567 3.70667 283.945 3.024 281.855 3.024C280.319 3.024 279.252 3.32266 278.655 3.92C278.1 4.51733 277.823 5.648 277.823 7.312V20.048ZM353.754 41.232C353.967 41.232 354.074 41.36 354.074 41.616C354.074 41.872 353.967 42 353.754 42C352.943 42 351.642 41.9573 349.85 41.872C348.058 41.7867 346.757 41.744 345.946 41.744C344.879 41.744 343.621 41.7867 342.17 41.872C340.719 41.9573 339.589 42 338.778 42C338.607 42 338.522 41.872 338.522 41.616C338.522 41.36 338.607 41.232 338.778 41.232C340.015 41.232 340.911 41.104 341.466 40.848C342.063 40.5493 342.362 40.08 342.362 39.44C342.362 38.8 341.999 37.712 341.274 36.176L334.362 22.16H322.778L317.85 33.232C317.295 34.512 317.018 35.664 317.018 36.688C317.018 38.1813 317.551 39.312 318.618 40.08C319.685 40.848 321.178 41.232 323.098 41.232C323.311 41.232 323.418 41.36 323.418 41.616C323.418 41.872 323.311 42 323.098 42C322.33 42 321.221 41.9573 319.77 41.872C318.149 41.7867 316.741 41.744 315.546 41.744C314.394 41.744 313.05 41.7867 311.514 41.872C310.149 41.9573 309.018 42 308.122 42C307.909 42 307.802 41.872 307.802 41.616C307.802 41.36 307.909 41.232 308.122 41.232C309.317 41.232 310.319 40.9973 311.13 40.528C311.941 40.0587 312.73 39.2267 313.498 38.032C314.266 36.7947 315.183 34.9813 316.25 32.592L330.01 1.616C330.095 1.488 330.287 1.424 330.586 1.424C330.885 1.424 331.055 1.488 331.098 1.616L346.778 33.232C348.271 36.304 349.509 38.416 350.49 39.568C351.514 40.6773 352.602 41.232 353.754 41.232ZM323.482 20.56H333.594L328.282 9.808L323.482 20.56ZM367.062 36.56C367.062 37.9253 367.211 38.928 367.51 39.568C367.851 40.1653 368.47 40.592 369.366 40.848C370.305 41.104 371.755 41.232 373.718 41.232C373.846 41.232 373.91 41.36 373.91 41.616C373.91 41.872 373.846 42 373.718 42C371.969 42 370.603 41.9787 369.622 41.936L364.054 41.872L359.446 41.936C358.635 41.9787 357.526 42 356.118 42C355.99 42 355.926 41.872 355.926 41.616C355.926 41.36 355.99 41.232 356.118 41.232C357.569 41.232 358.614 41.1253 359.254 40.912C359.894 40.6987 360.321 40.2933 360.534 39.696C360.79 39.0987 360.918 38.1387 360.918 36.816V7.184C360.918 5.904 360.79 4.96533 360.534 4.368C360.321 3.77066 359.873 3.36533 359.19 3.152C358.55 2.896 357.526 2.768 356.118 2.768C355.99 2.768 355.926 2.64 355.926 2.384C355.926 2.128 355.99 2 356.118 2L359.446 2.064C361.323 2.14933 362.838 2.192 363.99 2.192C364.971 2.192 366.166 2.128 367.574 2C368.086 1.95733 368.769 1.91466 369.622 1.872C370.518 1.82933 371.563 1.808 372.758 1.808C376.982 1.808 380.31 2.704 382.742 4.496C385.217 6.288 386.454 9.04 386.454 12.752C386.454 15.44 385.75 17.7227 384.342 19.6C382.977 21.4773 381.206 22.8853 379.03 23.824C376.897 24.7627 374.699 25.232 372.438 25.232C371.243 25.232 370.241 25.1253 369.43 24.912C369.302 24.912 369.238 24.8053 369.238 24.592C369.238 24.464 369.259 24.336 369.302 24.208C369.387 24.08 369.473 24.0373 369.558 24.08C370.241 24.2507 370.987 24.336 371.798 24.336C374.017 24.336 375.894 23.4187 377.43 21.584C378.966 19.7493 379.734 17.1253 379.734 13.712C379.734 10.3413 378.945 7.73867 377.366 5.904C375.787 4.02666 373.611 3.088 370.838 3.088C369.814 3.088 369.025 3.19466 368.47 3.408C367.958 3.62133 367.595 4.02666 367.382 4.624C367.169 5.17866 367.062 6.07466 367.062 7.312V36.56ZM435.594 41.232C435.722 41.232 435.786 41.36 435.786 41.616C435.786 41.872 435.722 42 435.594 42C434.143 42 432.97 41.9787 432.074 41.936L427.402 41.872L421.962 41.936C421.194 41.9787 420.17 42 418.89 42C418.762 42 418.698 41.872 418.698 41.616C418.698 41.36 418.762 41.232 418.89 41.232C420.511 41.232 421.684 41.1253 422.41 40.912C423.135 40.6987 423.626 40.2933 423.882 39.696C424.138 39.0987 424.266 38.1387 424.266 36.816V22.032H402.314V36.816C402.314 38.096 402.442 39.056 402.698 39.696C402.954 40.2933 403.444 40.6987 404.17 40.912C404.938 41.1253 406.132 41.232 407.753 41.232C407.839 41.232 407.882 41.36 407.882 41.616C407.882 41.872 407.839 42 407.753 42C406.303 42 405.172 41.9787 404.362 41.936L399.05 41.872L394.378 41.936C393.567 41.9787 392.436 42 390.986 42C390.9 42 390.858 41.872 390.858 41.616C390.858 41.36 390.9 41.232 390.986 41.232C392.522 41.232 393.652 41.1253 394.378 40.912C395.103 40.6987 395.594 40.2933 395.85 39.696C396.106 39.056 396.234 38.096 396.234 36.816V7.184C396.234 5.904 396.106 4.96533 395.85 4.368C395.594 3.77066 395.103 3.36533 394.378 3.152C393.652 2.896 392.543 2.768 391.049 2.768C390.964 2.768 390.922 2.64 390.922 2.384C390.922 2.128 390.964 2 391.049 2L394.442 2.064C396.404 2.14933 397.94 2.192 399.05 2.192C400.543 2.192 402.314 2.14933 404.362 2.064L407.753 2C407.839 2 407.882 2.128 407.882 2.384C407.882 2.64 407.839 2.768 407.753 2.768C406.175 2.768 405.002 2.896 404.234 3.152C403.508 3.408 402.996 3.856 402.698 4.496C402.442 5.09333 402.314 6.032 402.314 7.312V20.368H424.266V7.312C424.266 6.032 424.138 5.09333 423.882 4.496C423.626 3.856 423.114 3.408 422.346 3.152C421.62 2.896 420.468 2.768 418.89 2.768C418.762 2.768 418.698 2.64 418.698 2.384C418.698 2.128 418.762 2 418.89 2L421.962 2.064C424.01 2.14933 425.823 2.192 427.402 2.192C428.554 2.192 430.111 2.14933 432.074 2.064L435.594 2C435.722 2 435.786 2.128 435.786 2.384C435.786 2.64 435.722 2.768 435.594 2.768C434.058 2.768 432.927 2.896 432.202 3.152C431.519 3.36533 431.05 3.77066 430.794 4.368C430.538 4.96533 430.41 5.904 430.41 7.184V36.816C430.41 38.096 430.538 39.056 430.794 39.696C431.05 40.2933 431.519 40.6987 432.202 40.912C432.927 41.1253 434.058 41.232 435.594 41.232Z" fill="#CECECE"/>
</svg>
